SplineFontDB: 3.0
FontName: LintwBasic
FullName: LintwBasic
FamilyName: LintwBasic
Weight: Medium
Copyright: Created by nkymtky with FontForge 2.0 (http://fontforge.sf.net)
Version: oldest
ItalicAngle: 0
UnderlinePosition: -101
UnderlineWidth: 49
Ascent: 575
Descent: 449
sfntRevision: 0x00010000
LayerCount: 2
Layer: 0 1 "+gMyXYgAA"  1
Layer: 1 1 "+Uk2XYgAA"  0
XUID: [1021 84 1931235634 7275182]
FSType: 0
OS2Version: 4
OS2_WeightWidthSlopeOnly: 0
OS2_UseTypoMetrics: 1
CreationTime: 1339066776
ModificationTime: 1421670997
PfmFamily: 17
TTFWeight: 500
TTFWidth: 5
LineGap: 92
VLineGap: 0
Panose: 2 0 6 3 0 0 0 0 0 0
OS2TypoAscent: 0
OS2TypoAOffset: 1
OS2TypoDescent: 0
OS2TypoDOffset: 1
OS2TypoLinegap: 92
OS2WinAscent: 0
OS2WinAOffset: 1
OS2WinDescent: 0
OS2WinDOffset: 1
HheadAscent: 0
HheadAOffset: 1
HheadDescent: 0
HheadDOffset: 1
OS2SubXSize: 665
OS2SubYSize: 716
OS2SubXOff: 0
OS2SubYOff: 143
OS2SupXSize: 665
OS2SupYSize: 716
OS2SupXOff: 0
OS2SupYOff: 491
OS2StrikeYSize: 51
OS2StrikeYPos: 265
OS2Vendor: 'PfEd'
OS2CodePages: 00000001.00000000
OS2UnicodeRanges: 00000001.00000000.00000000.00000000
MarkAttachClasses: 1
DEI: 91125
ShortTable: cvt  2
  34
  541
EndShort
ShortTable: maxp 16
  1
  0
  99
  368
  12
  368
  12
  2
  0
  1
  1
  0
  64
  46
  1
  1
EndShort
LangName: 1033 
GaspTable: 1 65535 2
Encoding: UnicodeBmp
UnicodeInterp: none
NameList: Adobe Glyph List
DisplaySize: -24
AntiAlias: 1
FitToEm: 1
WinInfo: 0 75 22
BeginPrivate: 0
EndPrivate
TeXData: 1 0 0 1048576 524288 349525 456192 1048576 349525 783286 444596 497025 792723 393216 433062 380633 303038 157286 324010 404750 52429 2506097 1059062 262144
BeginChars: 65539 99

StartChar: .notdef
Encoding: 65536 -1 0
Width: 374
Flags: W
LayerCount: 2
Fore
SplineSet
34 0 m 1,0,-1
 34 575 l 1,1,-1
 306 575 l 1,2,-1
 306 0 l 1,3,-1
 34 0 l 1,0,-1
68 34 m 1,4,-1
 272 34 l 1,5,-1
 272 541 l 1,6,-1
 68 541 l 1,7,-1
 68 34 l 1,4,-1
EndSplineSet
Validated: 1
EndChar

StartChar: exclam
Encoding: 33 33 4
Width: 1024
Flags: W
LayerCount: 2
Fore
SplineSet
384 -161 m 1,0,-1
 384 -129 l 1,1,-1
 512 -129 l 1,2,-1
 640 -129 l 1,3,-1
 640 -161 l 1,4,-1
 640 -193 l 1,5,-1
 608 -193 l 1,6,-1
 576 -193 l 1,7,-1
 576 -257 l 1,8,-1
 576 -321 l 1,9,-1
 608 -321 l 1,10,-1
 640 -321 l 1,11,-1
 640 -353 l 1,12,-1
 640 -385 l 1,13,-1
 512 -385 l 1,14,-1
 384 -385 l 1,15,-1
 384 -353 l 1,16,-1
 384 -321 l 1,17,-1
 416 -321 l 1,18,-1
 448 -321 l 1,19,-1
 448 -257 l 1,20,-1
 448 -193 l 1,21,-1
 416 -193 l 1,22,-1
 384 -193 l 1,23,-1
 384 -161 l 1,0,-1
467 182 m 0,24,25
 513 200 513 200 560.5 182 c 128,-1,26
 608 164 608 164 629 121 c 0,27,28
 652 74 652 74 637 25 c 128,-1,29
 622 -24 622 -24 576 -50 c 0,30,31
 551 -63 551 -63 514 -63 c 0,32,33
 481 -63 481 -63 462.5 -55.5 c 128,-1,34
 444 -48 444 -48 422 -26 c 0,35,36
 386 10 386 10 386 63 c 0,37,38
 386 95 386 95 398 119 c 0,39,40
 419 163 419 163 467 182 c 0,24,25
850 493 m 1,41,-1
 862 511 l 1,42,-1
 909 511 l 1,43,-1
 955 511 l 1,44,-1
 932 459 l 1,45,46
 910 405 910 405 894 365 c 0,47,48
 833 202 833 202 841.5 24 c 128,-1,49
 850 -154 850 -154 926 -321 c 0,50,51
 950 -374 950 -374 948.5 -379.5 c 128,-1,52
 947 -385 947 -385 907 -385 c 2,53,-1
 861 -385 l 1,54,-1
 840 -352 l 2,55,56
 795 -282 795 -282 762 -193 c 128,-1,57
 729 -104 729 -104 717 -23 c 0,58,59
 711 17 711 17 714 92.5 c 128,-1,60
 717 168 717 168 725 208 c 0,61,62
 756 356 756 356 850 493 c 1,41,-1
384 479 m 1,63,-1
 384 511 l 1,64,-1
 512 511 l 1,65,-1
 640 511 l 1,66,-1
 640 479 l 1,67,-1
 640 447 l 1,68,-1
 608 447 l 1,69,-1
 576 447 l 1,70,-1
 576 383 l 1,71,-1
 576 319 l 1,72,-1
 608 319 l 1,73,-1
 640 319 l 1,74,-1
 640 287 l 1,75,-1
 640 255 l 1,76,-1
 512 255 l 1,77,-1
 384 255 l 1,78,-1
 384 287 l 1,79,-1
 384 319 l 1,80,-1
 416 319 l 1,81,-1
 448 319 l 1,82,-1
 448 383 l 1,83,-1
 448 447 l 1,84,-1
 416 447 l 1,85,-1
 384 447 l 1,86,-1
 384 479 l 1,63,-1
87 459 m 2,87,-1
 65 511 l 1,88,-1
 111 511 l 1,89,-1
 157 511 l 1,90,-1
 170 493 l 1,91,92
 264 356 264 356 295 208 c 0,93,94
 303 168 303 168 306 92.5 c 128,-1,95
 309 17 309 17 303 -23 c 0,96,97
 291 -104 291 -104 258 -193 c 128,-1,98
 225 -282 225 -282 180 -352 c 1,99,-1
 158 -385 l 1,100,-1
 113 -385 l 2,101,102
 73 -385 73 -385 71.5 -379.5 c 128,-1,103
 70 -374 70 -374 94 -321 c 0,104,105
 170 -154 170 -154 178.5 24 c 128,-1,106
 187 202 187 202 126 365 c 0,107,108
 122 375 122 375 115 391.5 c 128,-1,109
 108 408 108 408 99.5 428.5 c 128,-1,110
 91 449 91 449 87 459 c 2,87,-1
EndSplineSet
Validated: 33
EndChar

StartChar: dollar
Encoding: 36 36 7
Width: 1024
Flags: W
LayerCount: 2
Fore
SplineSet
640 415 m 1,0,-1
 640 447 l 1,1,-1
 768 447 l 1,2,-1
 896 447 l 1,3,-1
 896 415 l 1,4,-1
 896 383 l 1,5,-1
 864 383 l 1,6,-1
 832 383 l 1,7,-1
 832 31 l 1,8,-1
 832 -321 l 1,9,-1
 864 -321 l 1,10,-1
 896 -321 l 1,11,-1
 896 -353 l 1,12,-1
 896 -385 l 1,13,-1
 768 -385 l 1,14,-1
 640 -385 l 1,15,-1
 640 -353 l 1,16,-1
 640 -321 l 1,17,-1
 672 -321 l 1,18,-1
 704 -321 l 1,19,-1
 704 -177 l 1,20,-1
 704 -33 l 1,21,-1
 688 -52 l 2,22,23
 671 -73 671 -73 640 -103 c 128,-1,24
 609 -133 609 -133 585 -151 c 0,25,26
 531 -191 531 -191 454 -217 c 0,27,28
 420 -229 420 -229 405.5 -231.5 c 128,-1,29
 391 -234 391 -234 346 -234 c 0,30,31
 293 -234 293 -234 267 -228 c 128,-1,32
 241 -222 241 -222 215 -205 c 0,33,34
 173 -176 173 -176 173 -127 c 0,35,36
 173 -93 173 -93 190.5 -70 c 128,-1,37
 208 -47 208 -47 240 -39 c 0,38,39
 276 -30 276 -30 308 -53 c 0,40,41
 317 -60 317 -60 327 -76 c 128,-1,42
 337 -92 337 -92 337 -100 c 0,43,44
 337 -106 337 -106 346 -118 c 0,45,46
 352 -126 352 -126 358.5 -127.5 c 128,-1,47
 365 -129 365 -129 387 -129 c 0,48,49
 467 -129 467 -129 541.5 -89 c 128,-1,50
 616 -49 616 -49 676 25 c 2,51,-1
 704 60 l 1,52,-1
 704 221 l 1,53,-1
 704 383 l 1,54,-1
 672 383 l 1,55,-1
 640 383 l 1,56,-1
 640 415 l 1,0,-1
EndSplineSet
Validated: 33
EndChar

StartChar: parenleft
Encoding: 40 40 11
Width: 512
Flags: W
LayerCount: 2
Fore
SplineSet
64 63 m 1,0,-1
 64 511 l 1,1,-1
 247 511 l 2,2,3
 431 511 431 511 431 509 c 128,-1,4
 431 507 431 507 279 344 c 1,5,-1
 128 180 l 1,6,-1
 128 63 l 1,7,-1
 128 -54 l 1,8,-1
 241 -174 l 1,9,10
 355 -293 355 -293 397 -339 c 2,11,-1
 440 -385 l 1,12,-1
 252 -385 l 1,13,-1
 64 -385 l 1,14,-1
 64 63 l 1,0,-1
275 424 m 1,15,-1
 296 447 l 1,16,-1
 212 447 l 1,17,-1
 128 447 l 1,18,-1
 128 357 l 1,19,20
 130 272 130 272 134 272 c 1,21,22
 236 384 236 384 275 424 c 1,15,-1
247 -265 m 2,23,24
 194 -210 194 -210 161 -175 c 2,25,-1
 128 -140 l 1,26,-1
 128 -230 l 1,27,-1
 128 -321 l 1,28,-1
 214 -321 l 1,29,-1
 300 -321 l 1,30,-1
 247 -265 l 2,23,24
EndSplineSet
Validated: 1
EndChar

StartChar: parenright
Encoding: 41 41 12
Width: 512
Flags: W
LayerCount: 2
Fore
SplineSet
81 509 m 128,-1,1
 81 511 81 511 265 511 c 2,2,-1
 448 511 l 1,3,-1
 448 63 l 1,4,-1
 448 -385 l 1,5,-1
 260 -385 l 1,6,-1
 72 -385 l 1,7,-1
 115 -339 l 2,8,9
 157 -293 157 -293 271 -174 c 1,10,-1
 384 -54 l 1,11,-1
 384 63 l 1,12,-1
 384 180 l 1,13,-1
 233 344 l 1,14,0
 81 507 81 507 81 509 c 128,-1,1
384 357 m 2,15,-1
 384 447 l 1,16,-1
 300 447 l 1,17,-1
 216 447 l 1,18,-1
 237 424 l 1,19,20
 276 384 276 384 378 272 c 0,21,22
 381 269 381 269 382 276 c 0,23,24
 384 288 384 288 384 357 c 2,15,-1
382.5 -319.5 m 128,-1,26
 384 -318 384 -318 383 -230 c 2,27,-1
 382 -141 l 1,28,-1
 298 -230 l 1,29,-1
 214 -319 l 1,30,-1
 298 -320 l 2,31,25
 381 -321 381 -321 382.5 -319.5 c 128,-1,26
EndSplineSet
Validated: 33
EndChar

StartChar: period
Encoding: 46 46 17
Width: 1024
Flags: W
LayerCount: 2
Fore
SplineSet
467 182 m 0,0,1
 513 200 513 200 560.5 182 c 128,-1,2
 608 164 608 164 629 121 c 0,3,4
 653 74 653 74 637.5 24.5 c 128,-1,5
 622 -25 622 -25 576 -50 c 0,6,7
 560 -59 560 -59 550 -61 c 128,-1,8
 540 -63 540 -63 514 -63 c 0,9,10
 481 -63 481 -63 462.5 -55.5 c 128,-1,11
 444 -48 444 -48 422 -26 c 0,12,13
 387 9 387 9 386 63 c 0,14,15
 386 95 386 95 398 119 c 0,16,17
 420 164 420 164 467 182 c 0,0,1
EndSplineSet
Validated: 33
EndChar

StartChar: slash
Encoding: 47 47 18
Width: 1024
Flags: W
LayerCount: 2
Fore
SplineSet
467 -138 m 0,0,1
 513 -120 513 -120 560.5 -138 c 128,-1,2
 608 -156 608 -156 629 -199 c 0,3,4
 652 -246 652 -246 637 -295 c 128,-1,5
 622 -344 622 -344 576 -370 c 0,6,7
 551 -383 551 -383 514 -383 c 0,8,9
 481 -383 481 -383 462.5 -375.5 c 128,-1,10
 444 -368 444 -368 422 -346 c 0,11,12
 386 -310 386 -310 386 -257 c 0,13,14
 386 -225 386 -225 398 -201 c 0,15,16
 419 -157 419 -157 467 -138 c 0,0,1
128 31 m 1,17,-1
 128 63 l 1,18,-1
 512 63 l 1,19,-1
 896 63 l 1,20,-1
 896 31 l 1,21,-1
 896 -1 l 1,22,-1
 512 -1 l 1,23,-1
 128 -1 l 1,24,-1
 128 31 l 1,17,-1
467 438 m 0,25,26
 513 456 513 456 560.5 438 c 128,-1,27
 608 420 608 420 629 377 c 0,28,29
 652 330 652 330 637 281 c 128,-1,30
 622 232 622 232 576 206 c 0,31,32
 551 193 551 193 514 193 c 0,33,34
 481 193 481 193 462.5 200.5 c 128,-1,35
 444 208 444 208 422 230 c 0,36,37
 386 266 386 266 386 319 c 0,38,39
 386 351 386 351 398 375 c 0,40,41
 419 419 419 419 467 438 c 0,25,26
EndSplineSet
Validated: 33
EndChar

StartChar: zero
Encoding: 48 48 19
Width: 512
Flags: W
LayerCount: 2
Fore
SplineSet
204 371 m 0,0,1
 255 387 255 387 305 371.5 c 128,-1,2
 355 356 355 356 397 312 c 0,3,4
 419 289 419 289 431.5 268 c 128,-1,5
 444 247 444 247 454 214 c 0,6,7
 486 111 486 111 481.5 -32.5 c 128,-1,8
 477 -176 477 -176 439 -256 c 0,9,10
 429 -279 429 -279 403 -307.5 c 128,-1,11
 377 -336 377 -336 353 -351 c 0,12,13
 308 -380 308 -380 256 -380 c 128,-1,14
 204 -380 204 -380 159 -351 c 0,15,16
 135 -336 135 -336 109 -307.5 c 128,-1,17
 83 -279 83 -279 73 -256 c 0,18,19
 25 -154 25 -154 31 29 c 0,20,21
 35 139 35 139 58 214 c 0,22,23
 68 247 68 247 80.5 268 c 128,-1,24
 93 289 93 289 115 312 c 0,25,26
 156 355 156 355 204 371 c 0,0,1
312 306 m 0,27,28
 285 320 285 320 256 320 c 128,-1,29
 227 320 227 320 200 306 c 0,30,31
 183 297 183 297 160 274.5 c 128,-1,32
 137 252 137 252 128 235 c 0,33,34
 90 159 90 159 90 -4 c 0,35,36
 90 -114 90 -114 107.5 -180 c 128,-1,37
 125 -246 125 -246 164 -281 c 0,38,39
 256 -365 256 -365 348 -281 c 0,40,41
 387 -246 387 -246 404.5 -180 c 128,-1,42
 422 -114 422 -114 422 -4 c 0,43,44
 422 159 422 159 384 235 c 0,45,46
 375 252 375 252 352 274.5 c 128,-1,47
 329 297 329 297 312 306 c 0,27,28
EndSplineSet
Validated: 33
EndChar

StartChar: one
Encoding: 49 49 20
Width: 512
Flags: W
LayerCount: 2
Fore
SplineSet
286 351 m 1,0,-1
 286 383 l 1,1,-1
 382 383 l 1,2,-1
 478 383 l 1,3,-1
 478 351 l 1,4,-1
 478 319 l 1,5,-1
 442 319 l 1,6,-1
 406 319 l 1,7,-1
 395 290 l 2,8,9
 384 262 384 262 276 -30 c 2,10,-1
 168 -321 l 1,11,-1
 195 -321 l 1,12,-1
 222 -321 l 1,13,-1
 222 -353 l 1,14,-1
 222 -385 l 1,15,-1
 126 -385 l 1,16,-1
 30 -385 l 1,17,-1
 30 -353 l 1,18,-1
 30 -321 l 1,19,-1
 68 -321 l 1,20,-1
 105 -321 l 1,21,-1
 223 -4 l 2,22,23
 341 314 341 314 341 316.5 c 128,-1,24
 341 319 341 319 314 319 c 2,25,-1
 286 319 l 1,26,-1
 286 351 l 1,0,-1
EndSplineSet
Validated: 1
EndChar

StartChar: two
Encoding: 50 50 21
Width: 512
Flags: W
LayerCount: 2
Fore
SplineSet
195 371 m 0,0,1
 220 379 220 379 262 377 c 1,2,3
 291 377 291 377 302.5 374.5 c 128,-1,4
 314 372 314 372 331 363 c 0,5,6
 353 352 353 352 377 331 c 128,-1,7
 401 310 401 310 411 294 c 0,8,9
 441 247 441 247 441 187 c 1,10,11
 442 146 442 146 436 119 c 0,12,13
 423 61 423 61 338 -68 c 0,14,15
 289 -141 289 -141 290.5 -147 c 128,-1,16
 292 -153 292 -153 346 -237 c 2,17,-1
 399 -321 l 1,18,-1
 438 -321 l 1,19,-1
 478 -321 l 1,20,-1
 478 -353 l 1,21,-1
 478 -385 l 1,22,-1
 382 -385 l 1,23,-1
 286 -385 l 1,24,-1
 286 -353 l 1,25,-1
 286 -321 l 1,26,-1
 307 -320 l 1,27,-1
 328 -319 l 1,28,-1
 291 -260 l 2,29,30
 254 -202 254 -202 252 -202 c 128,-1,31
 250 -202 250 -202 210 -261 c 1,32,-1
 171 -321 l 1,33,-1
 196 -321 l 1,34,-1
 222 -321 l 1,35,-1
 222 -353 l 1,36,-1
 222 -385 l 1,37,-1
 126 -385 l 1,38,-1
 30 -385 l 1,39,-1
 30 -353 l 1,40,-1
 30 -321 l 1,41,-1
 65 -321 l 1,42,-1
 100 -321 l 1,43,-1
 151 -244 l 2,44,45
 203 -167 203 -167 210 -155 c 0,46,47
 215 -147 215 -147 210 -136 c 128,-1,48
 205 -125 205 -125 170 -69 c 0,49,50
 88 63 88 63 75 116 c 0,51,52
 68 142 68 142 68 180 c 0,53,54
 68 252 68 252 101 301 c 128,-1,55
 134 350 134 350 195 371 c 0,0,1
305 311 m 0,56,57
 258 334 258 334 207 313 c 128,-1,58
 156 292 156 292 138 242 c 0,59,60
 117 186 117 186 131.5 133.5 c 128,-1,61
 146 81 146 81 211 -24 c 2,62,-1
 253 -91 l 1,63,-1
 293 -30 l 2,64,65
 369 86 369 86 380 139 c 0,66,67
 392 196 392 196 371.5 242 c 128,-1,68
 351 288 351 288 305 311 c 0,56,57
EndSplineSet
Validated: 33
EndChar

StartChar: three
Encoding: 51 51 22
Width: 512
Flags: W
LayerCount: 2
Fore
SplineSet
158 351 m 1,0,-1
 158 383 l 1,1,-1
 254 383 l 1,2,-1
 350 383 l 1,3,-1
 350 351 l 1,4,-1
 350 319 l 1,5,-1
 322 319 l 2,6,7
 294 319 294 319 294 314.5 c 128,-1,8
 294 310 294 310 358.5 111 c 128,-1,9
 423 -88 423 -88 429 -109 c 1,10,-1
 436 -129 l 1,11,-1
 457 -129 l 1,12,-1
 478 -129 l 1,13,-1
 478 -161 l 1,14,-1
 478 -193 l 1,15,-1
 418 -193 l 2,16,17
 358 -193 358 -193 358 -196 c 128,-1,18
 358 -199 358 -199 381 -260 c 2,19,-1
 403 -321 l 1,20,-1
 440 -321 l 1,21,-1
 478 -321 l 1,22,-1
 478 -353 l 1,23,-1
 478 -385 l 1,24,-1
 382 -385 l 1,25,-1
 286 -385 l 1,26,-1
 286 -353 l 1,27,-1
 286 -321 l 1,28,-1
 313 -320 l 1,29,-1
 340 -319 l 1,30,-1
 317 -256 l 1,31,-1
 294 -194 l 1,32,-1
 238 -192 l 2,33,34
 181 -190 181 -190 153 -181 c 128,-1,35
 125 -172 125 -172 98 -148 c 0,36,37
 65 -117 65 -117 50 -82.5 c 128,-1,38
 35 -48 35 -48 32 5 c 1,39,40
 27 65 27 65 45.5 112 c 128,-1,41
 64 159 64 159 99 177 c 0,42,43
 115 185 115 185 137.5 186 c 128,-1,44
 160 187 160 187 177 181 c 0,45,46
 203 171 203 171 224 134 c 128,-1,47
 245 97 245 97 290 -20 c 2,48,-1
 331 -127 l 1,49,-1
 353 -128 l 1,50,-1
 375 -129 l 1,51,-1
 365 -98 l 2,52,53
 355 -67 355 -67 307.5 80 c 128,-1,54
 260 227 260 227 245 273 c 2,55,-1
 230 319 l 1,56,-1
 194 319 l 1,57,-1
 158 319 l 1,58,-1
 158 351 l 1,0,-1
166 115 m 0,59,60
 158 126 158 126 144 127 c 128,-1,61
 130 128 130 128 118 118 c 0,62,63
 92 98 92 98 92 18 c 0,64,65
 92 -16 92 -16 93.5 -28.5 c 128,-1,66
 95 -41 95 -41 103 -57 c 0,67,68
 125 -103 125 -103 160 -120 c 0,69,70
 178 -129 178 -129 223 -128 c 2,71,-1
 268 -127 l 1,72,-1
 235 -39 l 2,73,74
 186 91 186 91 166 115 c 0,59,60
EndSplineSet
Validated: 33
EndChar

StartChar: four
Encoding: 52 52 23
Width: 512
Flags: W
LayerCount: 2
Fore
SplineSet
30 351 m 1,0,-1
 30 383 l 1,1,-1
 94 383 l 1,2,-1
 158 383 l 1,3,-1
 158 351 l 1,4,-1
 158 319 l 1,5,-1
 141 319 l 1,6,-1
 124 319 l 1,7,-1
 124 77 l 2,8,9
 124 -3 124 -3 124 -47 c 128,-1,10
 124 -91 124 -91 124.5 -118 c 128,-1,11
 125 -145 125 -145 126.5 -152 c 128,-1,12
 128 -159 128 -159 129 -157 c 0,13,14
 135 -148 135 -148 291 118 c 1,15,-1
 446 385 l 1,16,-1
 447 32 l 1,17,-1
 448 -321 l 1,18,-1
 463 -321 l 1,19,-1
 478 -321 l 1,20,-1
 478 -353 l 1,21,-1
 478 -385 l 1,22,-1
 414 -385 l 1,23,-1
 350 -385 l 1,24,-1
 350 -353 l 1,25,-1
 350 -321 l 1,26,-1
 367 -321 l 1,27,-1
 384 -321 l 1,28,-1
 384 -82 l 2,29,30
 384 157 384 157 382.5 157 c 128,-1,31
 381 157 381 157 221 -117 c 2,32,-1
 62 -390 l 1,33,-1
 61 -36 l 1,34,-1
 60 319 l 1,35,-1
 45 319 l 1,36,-1
 30 319 l 1,37,-1
 30 351 l 1,0,-1
EndSplineSet
Validated: 1
EndChar

StartChar: five
Encoding: 53 53 24
Width: 512
Flags: W
LayerCount: 2
Fore
SplineSet
414 341 m 1,0,-1
 414 383 l 1,1,-1
 446 383 l 1,2,-1
 478 383 l 1,3,-1
 478 223 l 1,4,-1
 478 63 l 1,5,-1
 446 63 l 1,6,-1
 414 63 l 1,7,-1
 414 116 l 2,8,9
 414 154 414 154 412 166.5 c 128,-1,10
 410 179 410 179 399 206 c 0,11,12
 369 275 369 275 315 304.5 c 128,-1,13
 261 334 261 334 207 309 c 0,14,15
 186 300 186 300 162 277 c 128,-1,16
 138 254 138 254 129 235 c 0,17,18
 90 159 90 159 90 -4 c 0,19,20
 90 -138 90 -138 117.5 -210 c 128,-1,21
 145 -282 145 -282 209 -312 c 0,22,23
 259 -335 259 -335 304 -313 c 0,24,25
 369 -282 369 -282 397 -202 c 1,26,-1
 407 -175 l 1,27,-1
 387 -158 l 2,28,29
 338 -117 338 -117 365 -79 c 0,30,31
 378 -61 378 -61 407 -55 c 128,-1,32
 436 -49 436 -49 455 -61 c 0,33,34
 470 -70 470 -70 474.5 -86 c 128,-1,35
 479 -102 479 -102 474 -133 c 0,36,37
 453 -260 453 -260 388 -323 c 0,38,39
 324 -385 324 -385 249 -381 c 128,-1,40
 174 -377 174 -377 110 -309 c 0,41,42
 69 -266 69 -266 49 -188 c 0,43,44
 23 -84 23 -84 32.5 59 c 128,-1,45
 42 202 42 202 80 268 c 0,46,47
 91 287 91 287 113 310 c 0,48,49
 174 375 174 375 249.5 378.5 c 128,-1,50
 325 382 325 382 389 322 c 2,51,-1
 414 299 l 1,52,-1
 414 341 l 1,0,-1
EndSplineSet
Validated: 33
EndChar

StartChar: six
Encoding: 54 54 25
Width: 512
Flags: W
LayerCount: 2
Fore
SplineSet
286 351 m 1,0,-1
 286 383 l 1,1,-1
 382 383 l 1,2,-1
 478 383 l 1,3,-1
 478 351 l 1,4,-1
 478 319 l 1,5,-1
 440 319 l 1,6,-1
 403 319 l 1,7,-1
 344 158 l 2,8,9
 286 -3 286 -3 286 -7 c 0,10,11
 286 -9 286 -9 331 -130.5 c 128,-1,12
 376 -252 376 -252 400 -316 c 0,13,14
 402 -321 402 -321 440 -321 c 2,15,-1
 478 -321 l 1,16,-1
 478 -353 l 1,17,-1
 478 -385 l 1,18,-1
 382 -385 l 1,19,-1
 286 -385 l 1,20,-1
 286 -353 l 1,21,-1
 286 -321 l 1,22,-1
 311 -321 l 2,23,24
 337 -321 337 -321 337 -318 c 0,25,26
 337 -314 337 -314 316 -258.5 c 128,-1,27
 295 -203 295 -203 274 -150 c 128,-1,28
 253 -97 253 -97 252 -98 c 0,29,30
 249 -101 249 -101 172 -315 c 0,31,32
 171 -319 171 -319 176 -320 c 128,-1,33
 181 -321 181 -321 196 -321 c 2,34,-1
 222 -321 l 1,35,-1
 222 -353 l 1,36,-1
 222 -385 l 1,37,-1
 126 -385 l 1,38,-1
 30 -385 l 1,39,-1
 30 -353 l 1,40,-1
 30 -321 l 1,41,-1
 69 -320 l 1,42,-1
 108 -319 l 1,43,-1
 201 -63 l 2,44,45
 294 193 294 193 317 255 c 2,46,-1
 340 317 l 1,47,-1
 313 318 l 1,48,-1
 286 319 l 1,49,-1
 286 351 l 1,0,-1
EndSplineSet
Validated: 33
EndChar

StartChar: seven
Encoding: 55 55 26
Width: 512
Flags: W
LayerCount: 2
Fore
SplineSet
30 351 m 1,0,-1
 30 383 l 1,1,-1
 126 383 l 1,2,-1
 222 383 l 1,3,-1
 222 351 l 1,4,-1
 222 319 l 1,5,-1
 195 318 l 1,6,-1
 168 317 l 1,7,-1
 209 204 l 2,8,9
 251 91 251 91 253 87 c 0,10,11
 253 86 253 86 259 100.5 c 128,-1,12
 265 115 265 115 275.5 141.5 c 128,-1,13
 286 168 286 168 297 200 c 2,14,-1
 340 317 l 1,15,-1
 313 318 l 1,16,-1
 286 319 l 1,17,-1
 286 351 l 1,18,-1
 286 383 l 1,19,-1
 382 383 l 1,20,-1
 478 383 l 1,21,-1
 478 351 l 1,22,-1
 478 319 l 1,23,-1
 441 319 l 1,24,-1
 403 319 l 1,25,-1
 344 158 l 1,26,-1
 285 -3 l 1,27,-1
 344 -162 l 1,28,-1
 402 -321 l 1,29,-1
 440 -321 l 1,30,-1
 478 -321 l 1,31,-1
 478 -353 l 1,32,-1
 478 -385 l 1,33,-1
 254 -385 l 1,34,-1
 30 -385 l 1,35,-1
 30 -353 l 1,36,-1
 30 -321 l 1,37,-1
 68 -321 l 2,38,39
 92 -321 92 -321 99.5 -319.5 c 128,-1,40
 107 -318 107 -318 109 -314 c 0,41,42
 112 -306 112 -306 167.5 -154.5 c 128,-1,43
 223 -3 223 -3 219 8 c 0,44,45
 215 18 215 18 160 169 c 2,46,-1
 105 319 l 1,47,-1
 67 319 l 1,48,-1
 30 319 l 1,49,-1
 30 351 l 1,0,-1
296.5 -203.5 m 128,-1,51
 256 -94 256 -94 255 -92 c 0,52,53
 254 -91 254 -91 233 -146.5 c 128,-1,54
 212 -202 212 -202 191.5 -259 c 128,-1,55
 171 -316 171 -316 171 -318.5 c 128,-1,56
 171 -321 171 -321 254 -321 c 128,-1,57
 337 -321 337 -321 337 -317 c 128,-1,50
 337 -313 337 -313 296.5 -203.5 c 128,-1,51
EndSplineSet
Validated: 33
EndChar

StartChar: colon
Encoding: 58 58 29
Width: 1024
Flags: W
LayerCount: 2
Fore
SplineSet
467 -138 m 0,0,1
 513 -120 513 -120 560.5 -138 c 128,-1,2
 608 -156 608 -156 629 -199 c 0,3,4
 653 -246 653 -246 637.5 -295.5 c 128,-1,5
 622 -345 622 -345 576 -370 c 0,6,7
 560 -379 560 -379 550 -381 c 128,-1,8
 540 -383 540 -383 514 -383 c 0,9,10
 481 -383 481 -383 462.5 -375.5 c 128,-1,11
 444 -368 444 -368 422 -346 c 0,12,13
 387 -311 387 -311 386 -257 c 0,14,15
 386 -225 386 -225 398 -201 c 0,16,17
 420 -156 420 -156 467 -138 c 0,0,1
467 438 m 0,18,19
 513 456 513 456 560.5 438 c 128,-1,20
 608 420 608 420 629 377 c 0,21,22
 653 330 653 330 637.5 280.5 c 128,-1,23
 622 231 622 231 576 206 c 0,24,25
 560 197 560 197 550 195 c 128,-1,26
 540 193 540 193 514 193 c 0,27,28
 481 193 481 193 462.5 200.5 c 128,-1,29
 444 208 444 208 422 230 c 0,30,31
 387 265 387 265 386 319 c 0,32,33
 386 351 386 351 398 375 c 0,34,35
 420 420 420 420 467 438 c 0,18,19
EndSplineSet
Validated: 33
EndChar

StartChar: less
Encoding: 60 60 31
Width: 512
Flags: W
LayerCount: 2
Fore
SplineSet
358 352 m 1,0,-1
 359 383 l 1,1,-1
 391 383 l 1,2,-1
 422 383 l 1,3,-1
 422 31 l 1,4,-1
 422 -321 l 1,5,-1
 390 -321 l 1,6,-1
 358 -321 l 1,7,-1
 358 -295 l 1,8,-1
 358 -269 l 1,9,-1
 212 -120 l 2,10,11
 66 28 66 28 66 32 c 128,-1,12
 66 36 66 36 211 178 c 2,13,-1
 356 321 l 1,14,-1
 358 352 l 1,0,-1
358 -19 m 2,15,16
 358 140 358 140 356.5 140 c 128,-1,17
 355 140 355 140 276 64 c 1,18,-1
 198 -13 l 1,19,-1
 242 -59 l 1,20,21
 285 -106 285 -106 322 -142 c 2,22,-1
 358 -178 l 1,23,-1
 358 -19 l 2,15,16
EndSplineSet
Validated: 1
EndChar

StartChar: greater
Encoding: 62 62 33
Width: 512
Flags: W
LayerCount: 2
Fore
SplineSet
64 31 m 1,0,-1
 64 383 l 1,1,-1
 96 383 l 1,2,-1
 128 383 l 1,3,-1
 128 357 l 1,4,-1
 128 331 l 1,5,-1
 274 182 l 2,6,7
 420 34 420 34 420 30 c 128,-1,8
 420 26 420 26 275 -116 c 2,9,-1
 130 -259 l 1,10,-1
 129 -290 l 1,11,-1
 128 -321 l 1,12,-1
 96 -321 l 1,13,-1
 64 -321 l 1,14,-1
 64 31 l 1,0,-1
244 121 m 2,15,16
 201 168 201 168 164 204 c 2,17,-1
 128 240 l 1,18,-1
 128 81 l 1,19,-1
 128 -79 l 1,20,-1
 157 -53 l 2,21,22
 186 -27 186 -27 236 24 c 2,23,-1
 287 75 l 1,24,-1
 244 121 l 2,15,16
EndSplineSet
Validated: 1
EndChar

StartChar: question
Encoding: 63 63 34
Width: 1024
Flags: W
LayerCount: 2
Fore
SplineSet
256 -33 m 1,0,-1
 256 -1 l 1,1,-1
 512 -1 l 1,2,-1
 768 -1 l 1,3,-1
 768 -193 l 1,4,-1
 768 -385 l 1,5,-1
 512 -385 l 1,6,-1
 256 -385 l 1,7,-1
 256 -353 l 1,8,-1
 256 -321 l 1,9,-1
 448 -321 l 1,10,-1
 640 -321 l 1,11,-1
 640 -193 l 1,12,-1
 640 -65 l 1,13,-1
 448 -65 l 1,14,-1
 256 -65 l 1,15,-1
 256 -33 l 1,0,-1
439 441 m 0,16,17
 466 447 466 447 521.5 445.5 c 128,-1,18
 577 444 577 444 604 437 c 0,19,20
 676 417 676 417 719.5 372.5 c 128,-1,21
 763 328 763 328 767 267 c 0,22,23
 772 196 772 196 725.5 143.5 c 128,-1,24
 679 91 679 91 594 71 c 0,25,26
 557 62 557 62 499 64 c 0,27,28
 451 66 451 66 423 71.5 c 128,-1,29
 395 77 395 77 364 93 c 0,30,31
 303 123 303 123 274 181 c 0,32,33
 263 204 263 204 260.5 215 c 128,-1,34
 258 226 258 226 258 255 c 0,35,36
 258 296 258 296 271 323 c 0,37,38
 295 372 295 372 339 401 c 0,39,40
 382 429 382 429 439 441 c 0,16,17
563 378 m 0,41,42
 503 395 503 395 451 373 c 0,43,44
 431 365 431 365 413 346 c 128,-1,45
 395 327 395 327 388 307 c 0,46,47
 380 283 380 283 381 248 c 0,48,49
 385 171 385 171 447 141 c 0,50,51
 472 129 472 129 512 129 c 0,52,53
 579 129 579 129 615 168 c 0,54,55
 634 189 634 189 640 206 c 128,-1,56
 646 223 646 223 646 257 c 0,57,58
 646 297 646 297 635 317 c 0,59,60
 611 364 611 364 563 378 c 0,41,42
EndSplineSet
Validated: 33
EndChar

StartChar: I
Encoding: 73 73 44
Width: 1024
Flags: W
LayerCount: 2
Fore
SplineSet
907 167 m 0,0,1
 919 172 919 172 932 178 c 128,-1,2
 945 184 945 184 952 187 c 2,3,-1
 959 190 l 2,4,5
 960 190 960 190 960 144 c 2,6,-1
 960 97 l 1,7,-1
 931 79 l 1,8,9
 846 25 846 25 797 5 c 2,10,-1
 768 -7 l 1,11,-1
 768 -164 l 1,12,-1
 768 -321 l 1,13,-1
 832 -321 l 1,14,-1
 896 -321 l 1,15,-1
 896 -353 l 1,16,-1
 896 -385 l 1,17,-1
 512 -385 l 1,18,-1
 128 -385 l 1,19,-1
 128 -353 l 1,20,-1
 128 -321 l 1,21,-1
 192 -321 l 1,22,-1
 256 -321 l 1,23,-1
 256 -163 l 1,24,-1
 256 -5 l 1,25,-1
 234 4 l 1,26,27
 165 31 165 31 95 77 c 2,28,-1
 64 97 l 1,29,-1
 64 142 l 2,30,31
 64 182 64 182 69.5 183.5 c 128,-1,32
 75 185 75 185 128 161 c 0,33,34
 295 85 295 85 473 76.5 c 128,-1,35
 651 68 651 68 814 129 c 0,36,37
 864 148 864 148 907 167 c 0,0,1
358 -35 m 0,38,39
 329 -27 329 -27 323 -27 c 0,40,41
 320 -27 320 -27 320 -174 c 2,42,-1
 320 -321 l 1,43,-1
 384 -321 l 1,44,-1
 448 -321 l 1,45,-1
 448 -187 l 2,46,47
 448 -69 448 -69 444 -58 c 0,48,49
 440 -49 440 -49 423 -47 c 0,50,51
 415 -46 415 -46 412 -46 c 0,52,53
 391 -44 391 -44 358 -35 c 0,38,39
640 -182 m 2,54,55
 640 -167 640 -167 640 -142 c 0,56,57
 640 -66 640 -66 637 -54 c 128,-1,58
 634 -42 634 -42 616 -46 c 0,59,60
 610 -47 610 -47 606 -48 c 0,61,62
 584 -52 584 -52 549 -52 c 2,63,-1
 512 -52 l 1,64,-1
 512 -187 l 1,65,-1
 512 -321 l 1,66,-1
 576 -321 l 1,67,-1
 640 -321 l 1,68,-1
 640 -182 l 2,54,55
467 438 m 0,69,70
 513 456 513 456 560.5 438 c 128,-1,71
 608 420 608 420 629 377 c 0,72,73
 652 330 652 330 637 281 c 128,-1,74
 622 232 622 232 576 206 c 0,75,76
 551 193 551 193 514 193 c 0,77,78
 481 193 481 193 462.5 200.5 c 128,-1,79
 444 208 444 208 422 230 c 0,80,81
 386 266 386 266 386 319 c 0,82,83
 386 351 386 351 398 375 c 0,84,85
 419 419 419 419 467 438 c 0,69,70
EndSplineSet
Validated: 33
EndChar

StartChar: M
Encoding: 77 77 48
Width: 1024
Flags: W
LayerCount: 2
Fore
SplineSet
467 182 m 0,0,1
 513 200 513 200 560.5 182 c 128,-1,2
 608 164 608 164 629 121 c 0,3,4
 652 74 652 74 637 25 c 128,-1,5
 622 -24 622 -24 576 -50 c 0,6,7
 551 -63 551 -63 514 -63 c 0,8,9
 481 -63 481 -63 462.5 -55.5 c 128,-1,10
 444 -48 444 -48 422 -26 c 0,11,12
 386 10 386 10 386 63 c 0,13,14
 386 95 386 95 398 119 c 0,15,16
 419 163 419 163 467 182 c 0,0,1
360 502 m 0,17,18
 383 505 383 505 425.5 503.5 c 128,-1,19
 468 502 468 502 489 498 c 128,-1,20
 510 494 510 494 533 499 c 0,21,22
 555 504 555 504 612 504 c 0,23,24
 663 504 663 504 710 492 c 0,25,26
 750 481 750 481 794.5 459.5 c 128,-1,27
 839 438 839 438 867 415 c 2,28,-1
 896 391 l 1,29,-1
 896 419 l 1,30,-1
 896 447 l 1,31,-1
 928 447 l 1,32,-1
 960 447 l 1,33,-1
 960 319 l 1,34,-1
 960 191 l 1,35,-1
 929 191 l 1,36,-1
 898 191 l 1,37,-1
 890 220 l 2,38,39
 883 249 883 249 879 253 c 128,-1,40
 875 257 875 257 864 285 c 0,41,42
 817 400 817 400 706 436 c 0,43,44
 688 441 688 441 657.5 446.5 c 128,-1,45
 627 452 627 452 625 450 c 0,46,47
 624 449 624 449 630 444.5 c 128,-1,48
 636 440 636 440 645 434 c 0,49,50
 667 420 667 420 696.5 392 c 128,-1,51
 726 364 726 364 744 339 c 1,52,53
 766 311 766 311 783 275 c 0,54,55
 858 121 858 121 818 -49 c 128,-1,56
 778 -219 778 -219 646 -307 c 0,57,58
 623 -322 623 -322 623 -324 c 0,59,60
 623 -325 623 -325 626 -325 c 128,-1,61
 629 -325 629 -325 634.5 -324.5 c 128,-1,62
 640 -324 640 -324 646 -323 c 0,63,64
 794 -304 794 -304 856 -174 c 2,65,-1
 871 -142 l 1,66,-1
 856 -128 l 2,67,68
 834 -107 834 -107 834 -79.5 c 128,-1,69
 834 -52 834 -52 856 -29 c 0,70,71
 883 -1 883 -1 925 -1 c 0,72,73
 983 -1 983 -1 998 -49 c 128,-1,74
 1013 -97 1013 -97 975 -161 c 0,75,76
 873 -328 873 -328 697 -371 c 0,77,78
 672 -377 672 -377 613.5 -377.5 c 128,-1,79
 555 -378 555 -378 532 -373 c 0,80,81
 512 -368 512 -368 492 -373 c 0,82,83
 474 -378 474 -378 414 -378 c 0,84,85
 325 -378 325 -378 248 -342 c 0,86,87
 181 -310 181 -310 126 -252 c 0,88,89
 59 -181 59 -181 28 -85 c 128,-1,90
 -3 11 -3 11 8 114 c 0,91,92
 28 306 28 306 164 415 c 0,93,94
 254 488 254 488 360 502 c 0,17,18
397 444 m 0,95,96
 408 451 408 451 401 451 c 0,97,98
 398 451 398 451 388 449 c 0,99,100
 331 440 331 440 294.5 423 c 128,-1,101
 258 406 258 406 225 373 c 0,102,103
 175 323 175 323 153.5 251.5 c 128,-1,104
 132 180 132 180 132 65 c 0,105,106
 132 -92 132 -92 175 -184 c 0,107,108
 195 -226 195 -226 232.5 -258.5 c 128,-1,109
 270 -291 270 -291 317 -308 c 0,110,111
 335 -314 335 -314 368.5 -320 c 128,-1,112
 402 -326 402 -326 404 -324 c 0,113,114
 405 -323 405 -323 398.5 -318 c 128,-1,115
 392 -313 392 -313 382 -306 c 0,116,117
 357 -289 357 -289 324 -254 c 0,118,119
 257 -183 257 -183 225 -86.5 c 128,-1,120
 193 10 193 10 204 114 c 0,121,122
 225 326 225 326 397 444 c 0,95,96
558 414 m 0,123,124
 526 431 526 431 522 432 c 0,125,126
 510 436 510 436 477.5 417 c 128,-1,127
 445 398 445 398 420 373 c 0,128,129
 371 324 371 324 350 252.5 c 128,-1,130
 329 181 329 181 329 65 c 0,131,132
 329 -95 329 -95 371 -182 c 0,133,134
 388 -219 388 -219 405 -237 c 0,135,136
 421 -254 421 -254 453.5 -276.5 c 128,-1,137
 486 -299 486 -299 503 -304 c 128,-1,138
 520 -309 520 -309 542 -298 c 0,139,140
 714 -212 714 -212 702 93 c 0,141,142
 692 340 692 340 558 414 c 0,123,124
EndSplineSet
Validated: 33
EndChar

StartChar: a
Encoding: 97 97 68
Width: 1024
Flags: W
LayerCount: 2
Fore
SplineSet
399 -138 m 0,0,1
 445 -120 445 -120 492.5 -138 c 128,-1,2
 540 -156 540 -156 561 -199 c 0,3,4
 584 -246 584 -246 568.5 -295 c 128,-1,5
 553 -344 553 -344 507 -370 c 0,6,7
 482 -383 482 -383 446 -383 c 0,8,9
 413 -383 413 -383 394.5 -375.5 c 128,-1,10
 376 -368 376 -368 354 -346 c 0,11,12
 318 -310 318 -310 318 -257 c 0,13,14
 318 -225 318 -225 330 -201 c 0,15,16
 351 -157 351 -157 399 -138 c 0,0,1
442 430 m 2,17,-1
 448 445 l 1,18,-1
 483 379 l 2,19,20
 490 365 490 365 677 -4 c 2,21,-1
 837 -321 l 1,22,-1
 867 -321 l 1,23,-1
 896 -321 l 1,24,-1
 896 -353 l 1,25,-1
 896 -385 l 1,26,-1
 768 -385 l 1,27,-1
 640 -385 l 1,28,-1
 640 -353 l 1,29,-1
 640 -321 l 1,30,-1
 666 -321 l 1,31,-1
 691 -321 l 1,32,-1
 558 -54 l 1,33,-1
 425 213 l 1,34,-1
 419 199 l 2,35,36
 418 196 418 196 403.5 160.5 c 128,-1,37
 389 125 389 125 362 59 c 128,-1,38
 335 -7 335 -7 311 -67 c 2,39,-1
 209 -319 l 1,40,-1
 233 -320 l 1,41,-1
 256 -322 l 1,42,-1
 256 -353 l 1,43,-1
 256 -385 l 1,44,-1
 160 -385 l 1,45,-1
 64 -385 l 1,46,-1
 64 -353 l 1,47,-1
 64 -322 l 1,48,-1
 101 -320 l 1,49,-1
 139 -319 l 1,50,-1
 189 -195 l 1,51,52
 241 -69 241 -69 338 172 c 0,53,54
 359 223 359 223 386.5 292 c 128,-1,55
 414 361 414 361 427.5 393.5 c 128,-1,56
 441 426 441 426 442 430 c 2,17,-1
EndSplineSet
Validated: 33
EndChar

StartChar: b
Encoding: 98 98 69
Width: 1024
Flags: W
LayerCount: 2
Fore
SplineSet
459 503 m 0,0,1
 485 507 485 507 536 504.5 c 128,-1,2
 587 502 587 502 616 494 c 0,3,4
 685 476 685 476 738 431 c 128,-1,5
 791 386 791 386 804 334 c 0,6,7
 814 293 814 293 804 245 c 0,8,9
 793 195 793 195 757.5 142.5 c 128,-1,10
 722 90 722 90 647 13 c 2,11,-1
 575 -60 l 1,12,-1
 590 -72 l 1,13,14
 649 -121 649 -121 672.5 -159 c 128,-1,15
 696 -197 696 -197 696 -243 c 0,16,17
 696 -303 696 -303 648 -348 c 0,18,19
 605 -388 605 -388 540 -392 c 0,20,21
 451 -398 451 -398 397.5 -340 c 128,-1,22
 344 -282 344 -282 364 -202 c 0,23,24
 375 -161 375 -161 400.5 -131.5 c 128,-1,25
 426 -102 426 -102 508 -36 c 0,26,27
 569 14 569 14 597.5 45.5 c 128,-1,28
 626 77 626 77 647 120 c 0,29,30
 682 190 682 190 678 247 c 128,-1,31
 674 304 674 304 633 349 c 128,-1,32
 592 394 592 394 530 407 c 0,33,34
 471 420 471 420 403 403 c 128,-1,35
 335 386 335 386 327 357 c 0,36,37
 326 352 326 352 329 349.5 c 128,-1,38
 332 347 332 347 343 344 c 0,39,40
 368 337 368 337 382.5 312.5 c 128,-1,41
 397 288 397 288 389 263 c 0,42,43
 385 249 385 249 369 232.5 c 128,-1,44
 353 216 353 216 339 210 c 0,45,46
 313 199 313 199 281 206 c 128,-1,47
 249 213 249 213 233 234 c 0,48,49
 211 263 211 263 230 320 c 128,-1,50
 249 377 249 377 296 424 c 0,51,52
 358 486 358 486 459 503 c 0,0,1
564 -152 m 0,53,54
 540 -139 540 -139 513.5 -143.5 c 128,-1,55
 487 -148 487 -148 474 -167 c 0,56,57
 453 -196 453 -196 458 -244 c 128,-1,58
 463 -292 463 -292 489 -312 c 0,59,60
 509 -327 509 -327 533.5 -327.5 c 128,-1,61
 558 -328 558 -328 577 -313 c 0,62,63
 604 -291 604 -291 604 -234 c 0,64,65
 604 -173 604 -173 564 -152 c 0,53,54
EndSplineSet
Validated: 33
EndChar

StartChar: c
Encoding: 99 99 70
Width: 1024
Flags: W
LayerCount: 2
Fore
SplineSet
474 532 m 1,0,1
 478 538 478 538 481 539 c 1,2,3
 498 506 498 506 565 365 c 2,4,-1
 647 193 l 1,5,-1
 803 192 l 1,6,-1
 960 191 l 1,7,-1
 960 159 l 1,8,-1
 960 127 l 1,9,-1
 921 127 l 1,10,-1
 882 127 l 1,11,-1
 806 73 l 2,12,13
 730 19 730 19 730 16 c 1,14,15
 738 -1 738 -1 810 -154 c 2,16,-1
 889 -321 l 1,17,-1
 925 -321 l 1,18,-1
 960 -321 l 1,19,-1
 960 -353 l 1,20,-1
 960 -385 l 1,21,-1
 800 -385 l 1,22,-1
 640 -385 l 1,23,-1
 640 -353 l 1,24,-1
 640 -322 l 1,25,-1
 669 -320 l 1,26,-1
 697 -319 l 1,27,-1
 596 -238 l 2,28,29
 495 -157 495 -157 488 -157 c 0,30,31
 483 -157 483 -157 368 -237 c 1,32,-1
 254 -318 l 1,33,-1
 255 -351 l 1,34,-1
 257 -385 l 1,35,-1
 160 -385 l 1,36,-1
 64 -385 l 1,37,-1
 64 -353 l 1,38,-1
 64 -321 l 1,39,-1
 98 -321 l 1,40,-1
 131 -321 l 1,41,-1
 198 -156 l 2,42,43
 265 10 265 10 267 18 c 0,44,45
 268 23 268 23 256.5 34 c 128,-1,46
 245 45 245 45 205 77 c 2,47,-1
 142 127 l 1,48,-1
 103 127 l 1,49,-1
 64 127 l 1,50,-1
 64 159 l 1,51,-1
 64 191 l 1,52,-1
 201 192 l 1,53,-1
 339 193 l 1,54,-1
 393 327 l 2,55,56
 423 402 423 402 474 532 c 1,0,1
506 192 m 0,57,58
 507 193 507 193 480 251 c 0,59,60
 456 302 456 302 452 302 c 0,61,62
 451 302 451 302 450 300 c 128,-1,63
 449 298 449 298 445.5 289.5 c 128,-1,64
 442 281 442 281 436.5 267.5 c 128,-1,65
 431 254 431 254 426 242 c 2,66,-1
 406 193 l 1,67,-1
 455 192 l 2,68,69
 504 190 504 190 506 192 c 0,57,58
309 119 m 0,70,71
 312 125 312 125 302 126 c 0,72,73
 296 127 296 127 277 127 c 2,74,-1
 242 127 l 1,75,-1
 266 108 l 2,76,77
 290 88 290 88 294 88 c 128,-1,78
 298 88 298 88 302 100 c 0,79,80
 307 115 307 115 309 119 c 0,70,71
569 65 m 2,81,-1
 540 127 l 1,82,-1
 460 127 l 2,83,84
 406 127 406 127 392.5 125.5 c 128,-1,85
 379 124 379 124 377 119 c 0,86,87
 376 117 376 117 373.5 111.5 c 128,-1,88
 371 106 371 106 367 96 c 128,-1,89
 363 86 363 86 360 78 c 0,90,91
 346 44 346 44 349 41 c 0,92,93
 350 40 350 40 359.5 32.5 c 128,-1,94
 369 25 369 25 387.5 10 c 128,-1,95
 406 -5 406 -5 422 -18 c 2,96,-1
 492 -74 l 1,97,-1
 511 -59 l 2,98,99
 525 -49 525 -49 563 -22 c 2,100,-1
 597 2 l 2,101,102
 598 3 598 3 569 65 c 2,81,-1
738 101 m 2,103,-1
 774 127 l 1,104,-1
 726 127 l 1,105,-1
 678 127 l 1,106,-1
 689 103 l 2,107,108
 690 100 690 100 691.5 97.5 c 128,-1,109
 693 95 693 95 694 92.5 c 128,-1,110
 695 90 695 90 696 87.5 c 128,-1,111
 697 85 697 85 698 83.5 c 128,-1,112
 699 82 699 82 699.5 80.5 c 128,-1,113
 700 79 700 79 700 78 c 2,114,-1
 701 77 l 2,115,116
 702 76 702 76 738 101 c 2,103,-1
383 -67 m 0,117,118
 328 -23 328 -23 326 -22 c 0,119,120
 323 -20 323 -20 306 -59 c 0,121,122
 294 -87 294 -87 272 -139 c 0,123,124
 223 -260 223 -260 224 -261 c 0,125,126
 224 -262 224 -262 277 -225 c 128,-1,127
 330 -188 330 -188 382.5 -150 c 128,-1,128
 435 -112 435 -112 435 -111 c 0,129,130
 435 -108 435 -108 383 -67 c 0,117,118
671 -148 m 0,131,132
 627 -58 627 -58 624 -58 c 0,133,134
 620 -57 620 -57 582.5 -84.5 c 128,-1,135
 545 -112 545 -112 546 -115 c 0,136,137
 546 -118 546 -118 705 -245 c 0,138,139
 718 -256 718 -256 718 -252 c 0,140,141
 718 -245 718 -245 671 -148 c 0,131,132
EndSplineSet
Validated: 33
EndChar

StartChar: d
Encoding: 100 100 71
Width: 1024
Flags: W
LayerCount: 2
Fore
SplineSet
703 192 m 1,0,-1
 704 447 l 1,1,-1
 800 447 l 1,2,-1
 896 447 l 1,3,-1
 896 415 l 1,4,-1
 896 383 l 1,5,-1
 864 383 l 1,6,-1
 832 383 l 1,7,-1
 831 164 l 2,8,9
 830 10 830 10 828.5 -27 c 128,-1,10
 827 -64 827 -64 820 -91 c 0,11,12
 803 -155 803 -155 775 -199 c 1,13,14
 733 -261 733 -261 672 -306 c 0,15,16
 619 -344 619 -344 544 -372 c 0,17,18
 523 -380 523 -380 481 -391 c 128,-1,19
 439 -402 439 -402 431 -402 c 0,20,21
 424 -402 424 -402 415 -373 c 0,22,23
 405 -340 405 -340 408 -339 c 0,24,25
 410 -338 410 -338 415 -338 c 0,26,27
 451 -338 451 -338 523 -302 c 0,28,29
 589 -269 589 -269 628.5 -222 c 128,-1,30
 668 -175 668 -175 690 -101 c 2,31,-1
 701 -63 l 1,32,-1
 703 192 l 1,0,-1
128 415 m 1,33,-1
 128 447 l 1,34,-1
 384 447 l 1,35,-1
 640 447 l 1,36,-1
 640 415 l 1,37,-1
 640 383 l 1,38,-1
 608 383 l 1,39,-1
 576 383 l 1,40,-1
 576 223 l 1,41,-1
 576 63 l 1,42,-1
 608 63 l 1,43,-1
 640 63 l 1,44,-1
 640 31 l 1,45,-1
 640 -1 l 1,46,-1
 384 -1 l 1,47,-1
 128 -1 l 1,48,-1
 128 31 l 1,49,-1
 128 63 l 1,50,-1
 160 63 l 1,51,-1
 192 63 l 1,52,-1
 192 223 l 1,53,-1
 192 383 l 1,54,-1
 160 383 l 1,55,-1
 128 383 l 1,56,-1
 128 415 l 1,33,-1
448 223 m 1,57,-1
 448 383 l 1,58,-1
 352 383 l 1,59,-1
 256 383 l 1,60,-1
 256 223 l 1,61,-1
 256 63 l 1,62,-1
 352 63 l 1,63,-1
 448 63 l 1,64,-1
 448 223 l 1,57,-1
EndSplineSet
Validated: 33
EndChar

StartChar: e
Encoding: 101 101 72
Width: 1024
Flags: W
LayerCount: 2
Fore
SplineSet
128 415 m 1,0,-1
 128 447 l 1,1,-1
 512 447 l 1,2,-1
 896 447 l 1,3,-1
 896 415 l 1,4,-1
 896 383 l 1,5,-1
 736 383 l 1,6,-1
 576 383 l 1,7,-1
 576 287 l 1,8,-1
 576 191 l 1,9,-1
 704 191 l 1,10,-1
 832 191 l 1,11,-1
 832 159 l 1,12,-1
 832 127 l 1,13,-1
 704 127 l 1,14,-1
 576 127 l 1,15,-1
 576 31 l 1,16,-1
 576 -65 l 1,17,-1
 704 -65 l 1,18,-1
 832 -65 l 1,19,-1
 832 -97 l 1,20,-1
 832 -129 l 1,21,-1
 704 -129 l 1,22,-1
 576 -129 l 1,23,-1
 576 -225 l 1,24,-1
 576 -321 l 1,25,-1
 736 -321 l 1,26,-1
 896 -321 l 1,27,-1
 896 -353 l 1,28,-1
 896 -385 l 1,29,-1
 512 -385 l 1,30,-1
 128 -385 l 1,31,-1
 128 -353 l 1,32,-1
 128 -321 l 1,33,-1
 192 -321 l 1,34,-1
 256 -321 l 1,35,-1
 256 31 l 1,36,-1
 256 383 l 1,37,-1
 192 383 l 1,38,-1
 128 383 l 1,39,-1
 128 415 l 1,0,-1
448 31 m 1,40,-1
 448 383 l 1,41,-1
 384 383 l 1,42,-1
 320 383 l 1,43,-1
 320 31 l 1,44,-1
 320 -321 l 1,45,-1
 384 -321 l 1,46,-1
 448 -321 l 1,47,-1
 448 31 l 1,40,-1
EndSplineSet
Validated: 1
EndChar

StartChar: f
Encoding: 102 102 73
Width: 1024
Flags: W
LayerCount: 2
Fore
SplineSet
233 387 m 2,0,-1
 265 447 l 1,1,-1
 484 447 l 1,2,-1
 703 447 l 1,3,-1
 635 324 l 1,4,5
 566 203 566 203 564 196 c 0,6,7
 564 195 564 195 565 194.5 c 128,-1,8
 566 194 566 194 570 193.5 c 128,-1,9
 574 193 574 193 580 192.5 c 128,-1,10
 586 192 586 192 596 192 c 128,-1,11
 606 192 606 192 618 191.5 c 128,-1,12
 630 191 630 191 647.5 191 c 128,-1,13
 665 191 665 191 684 190.5 c 128,-1,14
 703 190 703 190 729 190 c 2,15,-1
 895 189 l 1,16,-1
 765 -42 l 2,17,18
 696 -165 696 -165 605 -326 c 0,19,20
 574 -381 574 -381 572 -381 c 0,21,22
 569 -381 569 -381 467 -274 c 0,23,24
 366 -168 366 -168 364 -168 c 0,25,26
 360 -168 360 -168 333 -217 c 0,27,28
 277 -320 277 -320 243.5 -352 c 128,-1,29
 210 -384 210 -384 163 -380 c 0,30,31
 140 -378 140 -378 125 -363 c 0,32,33
 94 -332 94 -332 114 -293 c 0,34,35
 127 -269 127 -269 146.5 -259 c 128,-1,36
 166 -249 166 -249 202 -249 c 0,37,38
 234 -249 234 -249 245 -239 c 0,39,40
 254 -231 254 -231 354 -52 c 2,41,-1
 452 125 l 1,42,-1
 290 126 l 1,43,-1
 128 127 l 1,44,-1
 128 159 l 1,45,-1
 128 191 l 1,46,-1
 309 191 l 1,47,-1
 489 191 l 1,48,-1
 524 254 l 1,49,-1
 559 317 l 1,50,-1
 374 319 l 2,51,52
 190 321 190 321 195 324 c 0,53,54
 201 328 201 328 233 387 c 2,0,-1
693 -42 m 2,55,-1
 788 127 l 1,56,-1
 657 127 l 1,57,-1
 525 127 l 1,58,-1
 502 85 l 1,59,60
 468 25 468 25 453 -3 c 2,61,-1
 427 -49 l 1,62,-1
 475 -99 l 2,63,64
 553 -180 553 -180 557 -184 c 0,65,66
 590 -219 590 -219 594 -215 c 0,67,68
 599 -210 599 -210 693 -42 c 2,55,-1
EndSplineSet
Validated: 33
EndChar

StartChar: g
Encoding: 103 103 74
Width: 1024
Flags: W
LayerCount: 2
Fore
SplineSet
446 507 m 0,0,1
 470 511 470 511 527.5 508.5 c 128,-1,2
 585 506 585 506 608 500 c 0,3,4
 714 471 714 471 752 392 c 0,5,6
 762 372 762 372 764 361 c 128,-1,7
 766 350 766 350 766 319 c 0,8,9
 766 273 766 273 754 249 c 0,10,11
 727 194 727 194 662 162 c 0,12,13
 632 147 632 147 612 142 c 0,14,15
 597 138 597 138 595 135 c 0,16,17
 594 134 594 134 624 107 c 128,-1,18
 654 80 654 80 705 34 c 2,19,-1
 817 -65 l 1,20,-1
 857 -65 l 1,21,-1
 896 -65 l 1,22,-1
 896 -97 l 1,23,-1
 896 -129 l 1,24,-1
 822 -129 l 1,25,-1
 749 -129 l 1,26,-1
 625 -259 l 1,27,-1
 502 -389 l 1,28,-1
 483 -372 l 2,29,30
 467 -359 467 -359 335 -242 c 2,31,-1
 207 -129 l 1,32,-1
 167 -129 l 1,33,-1
 128 -129 l 1,34,-1
 128 -97 l 1,35,-1
 128 -65 l 1,36,-1
 202 -65 l 1,37,-1
 275 -65 l 1,38,-1
 368 33 l 1,39,-1
 460 130 l 1,40,-1
 430 137 l 2,41,42
 371 150 371 150 322 187 c 0,43,44
 275 222 275 222 261 281 c 128,-1,45
 247 340 247 340 272 393 c 0,46,47
 293 436 293 436 339 466 c 128,-1,48
 385 496 385 496 446 507 c 0,0,1
565 439 m 0,49,50
 505 459 505 459 455.5 439.5 c 128,-1,51
 406 420 406 420 386 368 c 0,52,53
 378 349 378 349 380 312 c 128,-1,54
 382 275 382 275 392 257 c 0,55,56
 402 238 402 238 422.5 220.5 c 128,-1,57
 443 203 443 203 462 197 c 0,58,59
 510 183 510 183 558 197 c 0,60,61
 577 203 577 203 597.5 220.5 c 128,-1,62
 618 238 618 238 628 257 c 128,-1,63
 638 276 638 276 640 312 c 128,-1,64
 642 348 642 348 634 371 c 0,65,66
 627 393 627 393 607 412 c 128,-1,67
 587 431 587 431 565 439 c 0,49,50
598 -31 m 2,68,69
 588 -22 588 -22 561 2 c 128,-1,70
 534 26 534 26 524 35 c 2,71,-1
 487 67 l 1,72,-1
 425 2 l 1,73,-1
 363 -63 l 1,74,-1
 406 -64 l 1,75,-1
 448 -66 l 1,76,-1
 448 -97 l 1,77,-1
 448 -129 l 1,78,-1
 418 -130 l 1,79,-1
 389 -131 l 1,80,-1
 462 -196 l 1,81,-1
 535 -261 l 1,82,-1
 598 -196 l 1,83,-1
 661 -131 l 1,84,-1
 619 -130 l 1,85,-1
 576 -129 l 1,86,-1
 576 -97 l 1,87,-1
 576 -66 l 1,88,-1
 606 -64 l 1,89,-1
 635 -63 l 1,90,-1
 598 -31 l 2,68,69
EndSplineSet
Validated: 33
EndChar

StartChar: h
Encoding: 104 104 75
Width: 1024
Flags: W
LayerCount: 2
Fore
SplineSet
128 415 m 1,0,-1
 128 447 l 1,1,-1
 224 447 l 1,2,-1
 320 447 l 1,3,-1
 320 415 l 1,4,-1
 320 383 l 1,5,-1
 288 383 l 1,6,-1
 256 383 l 1,7,-1
 256 287 l 1,8,-1
 256 191 l 1,9,-1
 352 191 l 1,10,-1
 448 191 l 1,11,-1
 448 287 l 1,12,-1
 448 383 l 1,13,-1
 416 383 l 1,14,-1
 384 383 l 1,15,-1
 384 415 l 1,16,-1
 384 447 l 1,17,-1
 480 447 l 1,18,-1
 576 447 l 1,19,-1
 576 415 l 1,20,-1
 576 383 l 1,21,-1
 544 383 l 1,22,-1
 512 383 l 1,23,-1
 512 159 l 1,24,-1
 512 -65 l 1,25,-1
 608 -65 l 1,26,-1
 704 -65 l 1,27,-1
 704 159 l 1,28,-1
 704 383 l 1,29,-1
 672 383 l 1,30,-1
 640 383 l 1,31,-1
 640 415 l 1,32,-1
 640 447 l 1,33,-1
 768 447 l 1,34,-1
 896 447 l 1,35,-1
 896 415 l 1,36,-1
 896 383 l 1,37,-1
 864 383 l 1,38,-1
 832 383 l 1,39,-1
 832 31 l 1,40,-1
 832 -321 l 1,41,-1
 864 -321 l 1,42,-1
 896 -321 l 1,43,-1
 896 -353 l 1,44,-1
 896 -385 l 1,45,-1
 768 -385 l 1,46,-1
 640 -385 l 1,47,-1
 640 -353 l 1,48,-1
 640 -321 l 1,49,-1
 672 -321 l 1,50,-1
 704 -321 l 1,51,-1
 704 -225 l 1,52,-1
 704 -129 l 1,53,-1
 608 -129 l 1,54,-1
 512 -129 l 1,55,-1
 512 -225 l 1,56,-1
 512 -321 l 1,57,-1
 544 -321 l 1,58,-1
 576 -321 l 1,59,-1
 576 -353 l 1,60,-1
 576 -385 l 1,61,-1
 480 -385 l 1,62,-1
 384 -385 l 1,63,-1
 384 -353 l 1,64,-1
 384 -321 l 1,65,-1
 416 -321 l 1,66,-1
 448 -321 l 1,67,-1
 448 -97 l 1,68,-1
 448 127 l 1,69,-1
 352 127 l 1,70,-1
 256 127 l 1,71,-1
 256 -97 l 1,72,-1
 256 -321 l 1,73,-1
 288 -321 l 1,74,-1
 320 -321 l 1,75,-1
 320 -353 l 1,76,-1
 320 -385 l 1,77,-1
 224 -385 l 1,78,-1
 128 -385 l 1,79,-1
 128 -353 l 1,80,-1
 128 -321 l 1,81,-1
 160 -321 l 1,82,-1
 192 -321 l 1,83,-1
 192 31 l 1,84,-1
 192 383 l 1,85,-1
 160 383 l 1,86,-1
 128 383 l 1,87,-1
 128 415 l 1,0,-1
EndSplineSet
Validated: 1
EndChar

StartChar: i
Encoding: 105 105 76
Width: 1024
Flags: W
LayerCount: 2
Fore
SplineSet
128 95 m 1,0,-1
 128 127 l 1,1,-1
 512 127 l 1,2,-1
 896 127 l 1,3,-1
 896 95 l 1,4,-1
 896 63 l 1,5,-1
 745 63 l 2,6,7
 593 63 593 63 593 60 c 0,8,9
 593 58 593 58 706 -132 c 2,10,-1
 819 -321 l 1,11,-1
 858 -321 l 1,12,-1
 896 -321 l 1,13,-1
 896 -353 l 1,14,-1
 896 -385 l 1,15,-1
 512 -385 l 1,16,-1
 128 -385 l 1,17,-1
 128 -353 l 1,18,-1
 128 -322 l 1,19,-1
 169 -320 l 1,20,-1
 211 -319 l 1,21,-1
 306 -133 l 1,22,23
 402 51 402 51 404 58 c 0,24,25
 405 60 405 60 397 61 c 0,26,27
 379 63 379 63 267 63 c 2,28,-1
 128 63 l 1,29,-1
 128 95 l 1,0,-1
569 -153 m 2,30,31
 467 16 467 16 464 19 c 0,32,33
 462 21 462 21 458 16.5 c 128,-1,34
 454 12 454 12 443.5 -6.5 c 128,-1,35
 433 -25 433 -25 416 -57 c 128,-1,36
 399 -89 399 -89 370 -146 c 0,37,38
 282 -319 282 -319 283 -320 c 0,39,40
 285 -322 285 -322 477 -320 c 2,41,-1
 669 -319 l 1,42,-1
 569 -153 l 2,30,31
275 438 m 0,43,44
 321 456 321 456 368.5 438 c 128,-1,45
 416 420 416 420 437 377 c 0,46,47
 460 330 460 330 445 281 c 128,-1,48
 430 232 430 232 384 206 c 0,49,50
 359 193 359 193 322 193 c 0,51,52
 289 193 289 193 270.5 200.5 c 128,-1,53
 252 208 252 208 230 230 c 0,54,55
 194 266 194 266 194 319 c 0,56,57
 194 351 194 351 206 375 c 0,58,59
 227 419 227 419 275 438 c 0,43,44
EndSplineSet
Validated: 33
EndChar

StartChar: j
Encoding: 106 106 77
Width: 1024
Flags: W
LayerCount: 2
Fore
SplineSet
128 95 m 1,0,-1
 128 127 l 1,1,-1
 512 127 l 1,2,-1
 896 127 l 1,3,-1
 896 95 l 1,4,-1
 896 63 l 1,5,-1
 745 63 l 2,6,7
 593 63 593 63 593 60 c 0,8,9
 593 58 593 58 706 -132 c 2,10,-1
 819 -321 l 1,11,-1
 858 -321 l 1,12,-1
 896 -321 l 1,13,-1
 896 -353 l 1,14,-1
 896 -385 l 1,15,-1
 512 -385 l 1,16,-1
 128 -385 l 1,17,-1
 128 -353 l 1,18,-1
 128 -322 l 1,19,-1
 169 -320 l 1,20,-1
 211 -319 l 1,21,-1
 306 -133 l 1,22,23
 402 51 402 51 404 58 c 0,24,25
 405 60 405 60 397 61 c 0,26,27
 379 63 379 63 267 63 c 2,28,-1
 128 63 l 1,29,-1
 128 95 l 1,0,-1
569 -153 m 2,30,31
 467 16 467 16 464 19 c 0,32,33
 462 21 462 21 458 16.5 c 128,-1,34
 454 12 454 12 443.5 -6.5 c 128,-1,35
 433 -25 433 -25 416 -57 c 128,-1,36
 399 -89 399 -89 370 -146 c 0,37,38
 282 -319 282 -319 283 -320 c 0,39,40
 285 -322 285 -322 477 -320 c 2,41,-1
 669 -319 l 1,42,-1
 569 -153 l 2,30,31
659 438 m 0,43,44
 705 456 705 456 752.5 438 c 128,-1,45
 800 420 800 420 821 377 c 0,46,47
 844 330 844 330 829 281 c 128,-1,48
 814 232 814 232 768 206 c 0,49,50
 743 193 743 193 706 193 c 0,51,52
 673 193 673 193 654.5 200.5 c 128,-1,53
 636 208 636 208 614 230 c 0,54,55
 578 266 578 266 578 319 c 0,56,57
 578 351 578 351 590 375 c 0,58,59
 611 419 611 419 659 438 c 0,43,44
EndSplineSet
Validated: 33
EndChar

StartChar: k
Encoding: 107 107 78
Width: 1024
Flags: W
LayerCount: 2
Fore
SplineSet
128 415 m 1,0,-1
 128 447 l 1,1,-1
 512 447 l 1,2,-1
 896 447 l 1,3,-1
 896 415 l 1,4,-1
 896 383 l 1,5,-1
 800 383 l 1,6,-1
 704 383 l 1,7,-1
 704 223 l 1,8,-1
 704 63 l 1,9,-1
 800 63 l 1,10,-1
 896 63 l 1,11,-1
 896 31 l 1,12,-1
 896 -1 l 1,13,-1
 800 -1 l 1,14,-1
 704 -1 l 1,15,-1
 704 -161 l 1,16,-1
 704 -321 l 1,17,-1
 800 -321 l 1,18,-1
 896 -321 l 1,19,-1
 896 -353 l 1,20,-1
 896 -385 l 1,21,-1
 512 -385 l 1,22,-1
 128 -385 l 1,23,-1
 128 -353 l 1,24,-1
 128 -321 l 1,25,-1
 256 -321 l 1,26,-1
 384 -321 l 1,27,-1
 384 -161 l 1,28,-1
 384 -1 l 1,29,-1
 256 -1 l 1,30,-1
 128 -1 l 1,31,-1
 128 31 l 1,32,-1
 128 63 l 1,33,-1
 256 63 l 1,34,-1
 384 63 l 1,35,-1
 384 223 l 1,36,-1
 384 383 l 1,37,-1
 256 383 l 1,38,-1
 128 383 l 1,39,-1
 128 415 l 1,0,-1
576 223 m 1,40,-1
 576 383 l 1,41,-1
 512 383 l 1,42,-1
 448 383 l 1,43,-1
 448 223 l 1,44,-1
 448 63 l 1,45,-1
 512 63 l 1,46,-1
 576 63 l 1,47,-1
 576 223 l 1,40,-1
576 -161 m 1,48,-1
 576 -1 l 1,49,-1
 512 -1 l 1,50,-1
 448 -1 l 1,51,-1
 448 -161 l 1,52,-1
 448 -321 l 1,53,-1
 512 -321 l 1,54,-1
 576 -321 l 1,55,-1
 576 -161 l 1,48,-1
EndSplineSet
Validated: 1
EndChar

StartChar: l
Encoding: 108 108 79
Width: 1024
Flags: W
LayerCount: 2
Fore
SplineSet
463 -74 m 0,0,1
 509 -56 509 -56 556.5 -74 c 128,-1,2
 604 -92 604 -92 625 -135 c 0,3,4
 648 -182 648 -182 632.5 -231.5 c 128,-1,5
 617 -281 617 -281 571 -306 c 0,6,7
 556 -315 556 -315 546 -317 c 128,-1,8
 536 -319 536 -319 510 -319 c 0,9,10
 477 -319 477 -319 458.5 -311.5 c 128,-1,11
 440 -304 440 -304 418 -282 c 0,12,13
 382 -247 382 -247 382 -193 c 0,14,15
 382 -161 382 -161 394 -137 c 0,16,17
 416 -92 416 -92 463 -74 c 0,0,1
128 415 m 1,18,-1
 128 447 l 1,19,-1
 512 447 l 1,20,-1
 896 447 l 1,21,-1
 896 415 l 1,22,-1
 896 383 l 1,23,-1
 864 383 l 1,24,-1
 832 383 l 1,25,-1
 832 319 l 1,26,-1
 832 255 l 1,27,-1
 864 255 l 1,28,-1
 896 255 l 1,29,-1
 896 223 l 1,30,-1
 896 191 l 1,31,-1
 864 191 l 1,32,-1
 832 191 l 1,33,-1
 832 127 l 1,34,-1
 832 63 l 1,35,-1
 864 63 l 1,36,-1
 896 63 l 1,37,-1
 896 31 l 1,38,-1
 896 -1 l 1,39,-1
 512 -1 l 1,40,-1
 128 -1 l 1,41,-1
 128 31 l 1,42,-1
 128 63 l 1,43,-1
 160 63 l 1,44,-1
 192 63 l 1,45,-1
 192 127 l 1,46,-1
 192 191 l 1,47,-1
 160 191 l 1,48,-1
 128 191 l 1,49,-1
 128 223 l 1,50,-1
 128 255 l 1,51,-1
 160 255 l 1,52,-1
 192 255 l 1,53,-1
 192 319 l 1,54,-1
 192 383 l 1,55,-1
 160 383 l 1,56,-1
 128 383 l 1,57,-1
 128 415 l 1,18,-1
448 319 m 1,58,-1
 448 383 l 1,59,-1
 384 383 l 1,60,-1
 320 383 l 1,61,-1
 320 319 l 1,62,-1
 320 255 l 1,63,-1
 384 255 l 1,64,-1
 448 255 l 1,65,-1
 448 319 l 1,58,-1
704 319 m 1,66,-1
 704 383 l 1,67,-1
 640 383 l 1,68,-1
 576 383 l 1,69,-1
 576 319 l 1,70,-1
 576 255 l 1,71,-1
 640 255 l 1,72,-1
 704 255 l 1,73,-1
 704 319 l 1,66,-1
448 127 m 1,74,-1
 448 191 l 1,75,-1
 384 191 l 1,76,-1
 320 191 l 1,77,-1
 320 127 l 1,78,-1
 320 63 l 1,79,-1
 384 63 l 1,80,-1
 448 63 l 1,81,-1
 448 127 l 1,74,-1
704 127 m 1,82,-1
 704 191 l 1,83,-1
 640 191 l 1,84,-1
 576 191 l 1,85,-1
 576 127 l 1,86,-1
 576 63 l 1,87,-1
 640 63 l 1,88,-1
 704 63 l 1,89,-1
 704 127 l 1,82,-1
EndSplineSet
Validated: 33
EndChar

StartChar: m
Encoding: 109 109 80
Width: 1024
Flags: W
LayerCount: 2
Fore
SplineSet
330 -157 m 2,0,1
 454 7 454 7 455 7 c 128,-1,2
 456 7 456 7 613 -157 c 2,3,-1
 769 -321 l 1,4,-1
 833 -321 l 1,5,-1
 896 -321 l 1,6,-1
 896 -353 l 1,7,-1
 896 -385 l 1,8,-1
 736 -385 l 1,9,-1
 576 -385 l 1,10,-1
 576 -353 l 2,11,12
 576 -330 576 -330 577 -325.5 c 128,-1,13
 578 -321 578 -321 585 -320 c 0,14,15
 594 -319 594 -319 540 -262 c 0,16,17
 527 -249 527 -249 508 -230 c 2,18,-1
 420 -141 l 1,19,-1
 353 -230 l 1,20,-1
 286 -319 l 1,21,-1
 303 -320 l 1,22,-1
 320 -322 l 1,23,-1
 320 -353 l 1,24,-1
 320 -385 l 1,25,-1
 224 -385 l 1,26,-1
 128 -385 l 1,27,-1
 128 -353 l 1,28,-1
 128 -321 l 1,29,-1
 167 -321 l 1,30,-1
 207 -321 l 1,31,-1
 330 -157 l 2,0,1
64 415 m 1,32,-1
 64 447 l 1,33,-1
 192 447 l 1,34,-1
 320 447 l 1,35,-1
 320 415 l 1,36,-1
 320 383 l 1,37,-1
 288 383 l 1,38,-1
 256 383 l 1,39,-1
 256 196 l 2,40,41
 256 18 256 18 260 17 c 0,42,43
 261 16 261 16 264 19 c 0,44,45
 270 25 270 25 343 119.5 c 128,-1,46
 416 214 416 214 454 265 c 0,47,48
 478 298 478 298 482 300 c 0,49,50
 485 302 485 302 620 158 c 0,51,52
 759 9 759 9 761 8 c 0,53,54
 763 6 763 6 764.5 10 c 128,-1,55
 766 14 766 14 767 34.5 c 128,-1,56
 768 55 768 55 768 90 c 128,-1,57
 768 125 768 125 768 193 c 2,58,-1
 768 383 l 1,59,-1
 736 383 l 1,60,-1
 704 383 l 1,61,-1
 704 415 l 1,62,-1
 704 447 l 1,63,-1
 800 447 l 1,64,-1
 896 447 l 1,65,-1
 896 415 l 1,66,-1
 896 383 l 1,67,-1
 864 383 l 1,68,-1
 832 383 l 1,69,-1
 831 65 l 1,70,-1
 830 -252 l 1,71,-1
 657 -67 l 2,72,73
 494 108 494 108 467 138 c 2,74,-1
 450 157 l 1,75,-1
 290 -52 l 1,76,-1
 130 -261 l 1,77,-1
 129 61 l 1,78,-1
 128 383 l 1,79,-1
 96 383 l 1,80,-1
 64 383 l 1,81,-1
 64 415 l 1,32,-1
EndSplineSet
Validated: 33
EndChar

StartChar: n
Encoding: 110 110 81
Width: 1024
Flags: W
LayerCount: 2
Fore
SplineSet
768 -31 m 1,0,-1
 768 -1 l 1,1,-1
 800 -1 l 1,2,-1
 832 -1 l 1,3,-1
 832 -65 l 1,4,-1
 832 -129 l 1,5,-1
 762 -129 l 2,6,7
 710 -129 710 -129 700 -127.5 c 128,-1,8
 690 -126 690 -126 685 -118 c 0,9,10
 668 -92 668 -92 608 -78.5 c 128,-1,11
 548 -65 548 -65 482 -73 c 0,12,13
 343 -89 343 -89 325 -172 c 0,14,15
 319 -199 319 -199 329.5 -230 c 128,-1,16
 340 -261 340 -261 361 -277 c 0,17,18
 392 -300 392 -300 427.5 -309 c 128,-1,19
 463 -318 463 -318 531 -320 c 0,20,21
 603 -322 603 -322 643 -313 c 0,22,23
 712 -297 712 -297 729 -277 c 0,24,25
 735 -270 735 -270 726 -259 c 0,26,27
 717 -247 717 -247 717 -228 c 128,-1,28
 717 -209 717 -209 731 -195 c 0,29,30
 748 -178 748 -178 774.5 -177 c 128,-1,31
 801 -176 801 -176 821 -189.5 c 128,-1,32
 841 -203 841 -203 841 -225 c 0,33,34
 841 -252 841 -252 820 -283.5 c 128,-1,35
 799 -315 799 -315 770 -332 c 0,36,37
 691 -378 691 -378 529 -378 c 0,38,39
 425 -378 425 -378 350 -359 c 1,40,41
 238 -329 238 -329 197 -258 c 0,42,43
 189 -245 189 -245 187.5 -235.5 c 128,-1,44
 186 -226 186 -226 186 -195 c 0,45,46
 186 -158 186 -158 191.5 -143 c 128,-1,47
 197 -128 197 -128 221 -103 c 0,48,49
 298 -21 298 -21 491 -11 c 0,50,51
 640 -3 640 -3 743 -49 c 2,52,-1
 768 -60 l 1,53,-1
 768 -31 l 1,0,-1
128 415 m 1,54,-1
 128 447 l 1,55,-1
 224 447 l 1,56,-1
 320 447 l 1,57,-1
 320 415 l 1,58,-1
 320 383 l 1,59,-1
 288 383 l 1,60,-1
 256 383 l 1,61,-1
 256 244 l 1,62,-1
 256 105 l 1,63,-1
 270 114 l 2,64,65
 293 128 293 128 557 285 c 2,66,-1
 830 447 l 1,67,-1
 831 287 l 1,68,-1
 832 127 l 1,69,-1
 864 127 l 1,70,-1
 896 127 l 1,71,-1
 896 95 l 1,72,-1
 896 63 l 1,73,-1
 768 63 l 1,74,-1
 640 63 l 1,75,-1
 640 95 l 1,76,-1
 640 127 l 1,77,-1
 672 127 l 1,78,-1
 704 127 l 1,79,-1
 704 212 l 1,80,-1
 704 298 l 1,81,-1
 688 289 l 2,82,83
 667 277 667 277 433 138 c 2,84,-1
 194 -4 l 1,85,-1
 193 189 l 1,86,-1
 192 383 l 1,87,-1
 160 383 l 1,88,-1
 128 383 l 1,89,-1
 128 415 l 1,54,-1
EndSplineSet
Validated: 33
EndChar

StartChar: o
Encoding: 111 111 82
Width: 1024
Flags: W
LayerCount: 2
Fore
SplineSet
467 -10 m 0,0,1
 513 8 513 8 560.5 -10 c 128,-1,2
 608 -28 608 -28 629 -71 c 0,3,4
 652 -118 652 -118 637 -167 c 128,-1,5
 622 -216 622 -216 576 -242 c 0,6,7
 551 -255 551 -255 514 -255 c 0,8,9
 481 -255 481 -255 462.5 -247.5 c 128,-1,10
 444 -240 444 -240 422 -218 c 0,11,12
 386 -182 386 -182 386 -129 c 0,13,14
 386 -97 386 -97 398 -73 c 0,15,16
 419 -29 419 -29 467 -10 c 0,0,1
467 310 m 0,17,18
 513 328 513 328 560.5 310 c 128,-1,19
 608 292 608 292 629 249 c 0,20,21
 652 202 652 202 637 153 c 128,-1,22
 622 104 622 104 576 78 c 0,23,24
 551 65 551 65 514 65 c 0,25,26
 481 65 481 65 462.5 72.5 c 128,-1,27
 444 80 444 80 422 102 c 0,28,29
 386 138 386 138 386 191 c 0,30,31
 386 223 386 223 398 247 c 0,32,33
 419 291 419 291 467 310 c 0,17,18
427 441 m 0,34,35
 460 448 460 448 526.5 445.5 c 128,-1,36
 593 443 593 443 625 434 c 0,37,38
 711 410 711 410 779 353 c 128,-1,39
 847 296 847 296 881 218 c 0,40,41
 920 130 920 130 918.5 24 c 128,-1,42
 917 -82 917 -82 876 -164 c 0,43,44
 846 -225 846 -225 797 -272 c 0,45,46
 748 -320 748 -320 690 -347 c 0,47,48
 644 -369 644 -369 608 -376 c 128,-1,49
 572 -383 572 -383 510 -383 c 0,50,51
 451 -383 451 -383 424.5 -378.5 c 128,-1,52
 398 -374 398 -374 349 -355 c 0,53,54
 276 -327 276 -327 217.5 -266.5 c 128,-1,55
 159 -206 159 -206 132 -130 c 0,56,57
 115 -83 115 -83 110 -52 c 128,-1,58
 105 -21 105 -21 105 35 c 0,59,60
 105 102 105 102 117 146 c 0,61,62
 147 261 147 261 229 339 c 128,-1,63
 311 417 311 417 427 441 c 0,34,35
590 366 m 0,64,65
 551 378 551 378 499.5 376.5 c 128,-1,66
 448 375 448 375 416 361 c 0,67,68
 396 352 396 352 369 333 c 128,-1,69
 342 314 342 314 330 299 c 0,70,71
 283 244 283 244 262 154 c 128,-1,72
 241 64 241 64 251 -33 c 0,73,74
 267 -179 267 -179 341 -253 c 0,75,76
 378 -290 378 -290 416 -305.5 c 128,-1,77
 454 -321 454 -321 510 -321 c 0,78,79
 571 -321 571 -321 623 -297 c 0,80,81
 756 -233 756 -233 772 -20 c 0,82,83
 783 132 783 132 731 240 c 0,84,85
 709 284 709 284 671 318 c 128,-1,86
 633 352 633 352 590 366 c 0,64,65
EndSplineSet
Validated: 33
EndChar

StartChar: p
Encoding: 112 112 83
Width: 1024
Flags: W
LayerCount: 2
Fore
SplineSet
309 442 m 0,0,1
 341 446 341 446 618 446 c 2,2,-1
 896 447 l 1,3,-1
 896 415 l 1,4,-1
 896 383 l 1,5,-1
 832 383 l 1,6,-1
 768 383 l 1,7,-1
 768 285 l 1,8,-1
 768 187 l 1,9,-1
 832 187 l 1,10,-1
 896 187 l 1,11,-1
 896 155 l 1,12,-1
 896 123 l 1,13,-1
 832 123 l 1,14,-1
 768 123 l 1,15,-1
 768 27 l 1,16,-1
 768 -69 l 1,17,-1
 832 -69 l 1,18,-1
 896 -69 l 1,19,-1
 896 -101 l 1,20,-1
 896 -133 l 1,21,-1
 704 -133 l 1,22,-1
 512 -133 l 1,23,-1
 512 -227 l 1,24,-1
 512 -321 l 1,25,-1
 544 -321 l 1,26,-1
 576 -321 l 1,27,-1
 576 -353 l 1,28,-1
 576 -385 l 1,29,-1
 480 -385 l 1,30,-1
 384 -385 l 1,31,-1
 384 -353 l 1,32,-1
 384 -321 l 1,33,-1
 416 -321 l 1,34,-1
 448 -321 l 1,35,-1
 448 -227 l 1,36,-1
 448 -133 l 1,37,-1
 288 -133 l 1,38,-1
 128 -133 l 1,39,-1
 128 -101 l 1,40,-1
 128 -69 l 1,41,-1
 288 -69 l 1,42,-1
 448 -69 l 1,43,-1
 448 26 l 1,44,-1
 448 121 l 1,45,-1
 381 124 l 1,46,47
 223 130 223 130 140 185 c 0,48,49
 96 215 96 215 82.5 255 c 128,-1,50
 69 295 69 295 89 335 c 0,51,52
 109 373 109 373 169.5 402.5 c 128,-1,53
 230 432 230 432 309 442 c 0,0,1
448 285 m 1,54,-1
 448 383 l 1,55,-1
 400 383 l 2,56,57
 332 383 332 383 293 360 c 0,58,59
 247 333 247 333 245 289.5 c 128,-1,60
 243 246 243 246 285 214 c 0,61,62
 320 187 320 187 398 187 c 2,63,-1
 448 187 l 1,64,-1
 448 285 l 1,54,-1
640 285 m 1,65,-1
 640 383 l 1,66,-1
 576 383 l 1,67,-1
 512 383 l 1,68,-1
 512 285 l 1,69,-1
 512 187 l 1,70,-1
 576 187 l 1,71,-1
 640 187 l 1,72,-1
 640 285 l 1,65,-1
640 27 m 1,73,-1
 640 123 l 1,74,-1
 576 123 l 1,75,-1
 512 123 l 1,76,-1
 512 27 l 1,77,-1
 512 -69 l 1,78,-1
 576 -69 l 1,79,-1
 640 -69 l 1,80,-1
 640 27 l 1,73,-1
EndSplineSet
Validated: 33
EndChar

StartChar: q
Encoding: 113 113 84
Width: 1024
Flags: W
LayerCount: 2
Fore
SplineSet
878 475 m 2,0,-1
 894 494 l 1,1,-1
 895 215 l 1,2,-1
 896 -65 l 1,3,-1
 928 -65 l 1,4,-1
 960 -65 l 1,5,-1
 960 -97 l 1,6,-1
 960 -129 l 1,7,-1
 704 -129 l 1,8,-1
 448 -129 l 1,9,-1
 448 -170 l 2,10,11
 448 -209 448 -209 454 -224.5 c 128,-1,12
 460 -240 460 -240 479 -249 c 0,13,14
 492 -255 492 -255 527.5 -256 c 128,-1,15
 563 -257 563 -257 729 -257 c 2,16,-1
 960 -257 l 1,17,-1
 960 -321 l 1,18,-1
 960 -385 l 1,19,-1
 711 -385 l 2,20,21
 462 -385 462 -385 448 -380 c 0,22,23
 413 -368 413 -368 396 -335 c 0,24,25
 389 -321 389 -321 387.5 -304 c 128,-1,26
 386 -287 386 -287 385 -222 c 2,27,-1
 383 -129 l 1,28,-1
 224 -129 l 1,29,-1
 64 -129 l 1,30,-1
 64 -97 l 1,31,-1
 64 -65 l 1,32,-1
 96 -65 l 1,33,-1
 128 -65 l 1,34,-1
 128 -1 l 1,35,-1
 128 63 l 1,36,-1
 96 63 l 1,37,-1
 64 63 l 1,38,-1
 64 95 l 1,39,-1
 64 127 l 1,40,-1
 256 127 l 1,41,-1
 448 127 l 1,42,-1
 448 31 l 1,43,-1
 448 -65 l 1,44,-1
 512 -65 l 1,45,-1
 576 -65 l 1,46,-1
 576 116 l 1,47,-1
 576 297 l 1,48,-1
 554 304 l 2,49,50
 531 312 531 312 465 341 c 0,51,52
 343 394 343 394 300 390 c 0,53,54
 261 386 261 386 249 368 c 0,55,56
 245 361 245 361 246.5 357 c 128,-1,57
 248 353 248 353 260 342 c 0,58,59
 288 316 288 316 285 274 c 0,60,61
 283 254 283 254 272.5 236 c 128,-1,62
 262 218 262 218 247 210 c 0,63,64
 233 203 233 203 209 201 c 0,65,66
 146 195 146 195 117 241 c 128,-1,67
 88 287 88 287 117 347 c 0,68,69
 137 387 137 387 191 418 c 128,-1,70
 245 449 245 449 305.5 457.5 c 128,-1,71
 366 466 366 466 422 452 c 1,72,73
 454 442 454 442 514 415 c 0,74,75
 610 372 610 372 656.5 367 c 128,-1,76
 703 362 703 362 762 389 c 1,77,78
 788 402 788 402 824.5 428.5 c 128,-1,79
 861 455 861 455 878 475 c 2,0,-1
768 140 m 2,80,81
 768 345 768 345 766.5 345 c 128,-1,82
 765 345 765 345 759 338 c 1,83,84
 750 330 750 330 717 315 c 128,-1,85
 684 300 684 300 665 296 c 2,86,-1
 640 291 l 1,87,-1
 640 113 l 1,88,-1
 640 -65 l 1,89,-1
 704 -65 l 1,90,-1
 768 -65 l 1,91,-1
 768 140 l 2,80,81
384 -1 m 1,92,-1
 384 63 l 1,93,-1
 320 63 l 1,94,-1
 256 63 l 1,95,-1
 256 -1 l 1,96,-1
 256 -65 l 1,97,-1
 320 -65 l 1,98,-1
 384 -65 l 1,99,-1
 384 -1 l 1,92,-1
EndSplineSet
Validated: 33
EndChar

StartChar: r
Encoding: 114 114 85
Width: 1024
Flags: W
LayerCount: 2
Fore
SplineSet
275 -74 m 0,0,1
 321 -56 321 -56 368.5 -74 c 128,-1,2
 416 -92 416 -92 437 -135 c 0,3,4
 461 -182 461 -182 445.5 -231.5 c 128,-1,5
 430 -281 430 -281 384 -306 c 0,6,7
 368 -315 368 -315 358 -317 c 128,-1,8
 348 -319 348 -319 322 -319 c 0,9,10
 289 -319 289 -319 270.5 -311.5 c 128,-1,11
 252 -304 252 -304 230 -282 c 0,12,13
 195 -247 195 -247 194 -193 c 0,14,15
 194 -161 194 -161 206 -137 c 0,16,17
 228 -92 228 -92 275 -74 c 0,0,1
128 415 m 1,18,-1
 128 447 l 1,19,-1
 512 447 l 1,20,-1
 896 447 l 1,21,-1
 896 415 l 1,22,-1
 896 383 l 1,23,-1
 832 383 l 1,24,-1
 768 383 l 1,25,-1
 768 255 l 1,26,-1
 768 127 l 1,27,-1
 832 127 l 1,28,-1
 896 127 l 1,29,-1
 896 95 l 1,30,-1
 896 63 l 1,31,-1
 832 63 l 1,32,-1
 768 63 l 1,33,-1
 768 -129 l 1,34,-1
 768 -321 l 1,35,-1
 800 -321 l 1,36,-1
 832 -321 l 1,37,-1
 832 -353 l 1,38,-1
 832 -385 l 1,39,-1
 704 -385 l 1,40,-1
 576 -385 l 1,41,-1
 576 -353 l 1,42,-1
 576 -321 l 1,43,-1
 608 -321 l 1,44,-1
 640 -321 l 1,45,-1
 640 -129 l 1,46,-1
 640 63 l 1,47,-1
 384 63 l 1,48,-1
 128 63 l 1,49,-1
 128 95 l 1,50,-1
 128 127 l 1,51,-1
 192 127 l 1,52,-1
 256 127 l 1,53,-1
 256 255 l 1,54,-1
 256 383 l 1,55,-1
 192 383 l 1,56,-1
 128 383 l 1,57,-1
 128 415 l 1,18,-1
640 255 m 1,58,-1
 640 383 l 1,59,-1
 512 383 l 1,60,-1
 384 383 l 1,61,-1
 384 255 l 1,62,-1
 384 127 l 1,63,-1
 512 127 l 1,64,-1
 640 127 l 1,65,-1
 640 255 l 1,58,-1
EndSplineSet
Validated: 33
EndChar

StartChar: s
Encoding: 115 115 86
Width: 1024
Flags: W
LayerCount: 2
Fore
SplineSet
787 502 m 0,0,1
 833 520 833 520 880.5 502 c 128,-1,2
 928 484 928 484 949 441 c 0,3,4
 972 394 972 394 957 345 c 128,-1,5
 942 296 942 296 896 270 c 0,6,7
 871 257 871 257 834 257 c 0,8,9
 801 257 801 257 782.5 264.5 c 128,-1,10
 764 272 764 272 742 294 c 0,11,12
 706 330 706 330 706 383 c 0,13,14
 706 415 706 415 718 439 c 0,15,16
 739 483 739 483 787 502 c 0,0,1
147 502 m 0,17,18
 193 520 193 520 240.5 502 c 128,-1,19
 288 484 288 484 309 441 c 0,20,21
 332 394 332 394 317 345 c 128,-1,22
 302 296 302 296 256 270 c 0,23,24
 231 257 231 257 194 257 c 0,25,26
 161 257 161 257 142.5 264.5 c 128,-1,27
 124 272 124 272 102 294 c 0,28,29
 66 330 66 330 66 383 c 0,30,31
 66 415 66 415 78 439 c 0,32,33
 99 483 99 483 147 502 c 0,17,18
474 532 m 1,34,35
 478 538 478 538 481 539 c 1,36,37
 498 506 498 506 565 365 c 2,38,-1
 647 193 l 1,39,-1
 803 192 l 1,40,-1
 960 191 l 1,41,-1
 960 159 l 1,42,-1
 960 127 l 1,43,-1
 921 127 l 1,44,-1
 882 127 l 1,45,-1
 806 73 l 2,46,47
 730 19 730 19 730 16 c 1,48,49
 738 -1 738 -1 810 -154 c 2,50,-1
 889 -321 l 1,51,-1
 925 -321 l 1,52,-1
 960 -321 l 1,53,-1
 960 -353 l 1,54,-1
 960 -385 l 1,55,-1
 800 -385 l 1,56,-1
 640 -385 l 1,57,-1
 640 -353 l 1,58,-1
 640 -322 l 1,59,-1
 669 -320 l 1,60,-1
 697 -319 l 1,61,-1
 596 -238 l 2,62,63
 495 -157 495 -157 488 -157 c 0,64,65
 483 -157 483 -157 368 -237 c 1,66,-1
 254 -318 l 1,67,-1
 255 -351 l 1,68,-1
 257 -385 l 1,69,-1
 160 -385 l 1,70,-1
 64 -385 l 1,71,-1
 64 -353 l 1,72,-1
 64 -321 l 1,73,-1
 98 -321 l 1,74,-1
 131 -321 l 1,75,-1
 198 -156 l 2,76,77
 265 10 265 10 267 18 c 0,78,79
 268 23 268 23 256.5 34 c 128,-1,80
 245 45 245 45 205 77 c 2,81,-1
 142 127 l 1,82,-1
 103 127 l 1,83,-1
 64 127 l 1,84,-1
 64 159 l 1,85,-1
 64 191 l 1,86,-1
 201 192 l 1,87,-1
 339 193 l 1,88,-1
 393 327 l 2,89,90
 423 402 423 402 474 532 c 1,34,35
506 192 m 0,91,92
 507 193 507 193 480 251 c 0,93,94
 456 302 456 302 452 302 c 0,95,96
 451 302 451 302 450 300 c 128,-1,97
 449 298 449 298 445.5 289.5 c 128,-1,98
 442 281 442 281 436.5 267.5 c 128,-1,99
 431 254 431 254 426 242 c 2,100,-1
 406 193 l 1,101,-1
 455 192 l 2,102,103
 504 190 504 190 506 192 c 0,91,92
309 119 m 0,104,105
 312 125 312 125 302 126 c 0,106,107
 296 127 296 127 277 127 c 2,108,-1
 242 127 l 1,109,-1
 266 108 l 2,110,111
 290 88 290 88 294 88 c 128,-1,112
 298 88 298 88 302 100 c 0,113,114
 307 115 307 115 309 119 c 0,104,105
569 65 m 2,115,-1
 540 127 l 1,116,-1
 460 127 l 2,117,118
 406 127 406 127 392.5 125.5 c 128,-1,119
 379 124 379 124 377 119 c 0,120,121
 376 117 376 117 373.5 111.5 c 128,-1,122
 371 106 371 106 367 96 c 128,-1,123
 363 86 363 86 360 78 c 0,124,125
 346 44 346 44 349 41 c 0,126,127
 350 40 350 40 359.5 32.5 c 128,-1,128
 369 25 369 25 387.5 10 c 128,-1,129
 406 -5 406 -5 422 -18 c 2,130,-1
 492 -74 l 1,131,-1
 511 -59 l 2,132,133
 525 -49 525 -49 563 -22 c 2,134,-1
 597 2 l 2,135,136
 598 3 598 3 569 65 c 2,115,-1
738 101 m 2,137,-1
 774 127 l 1,138,-1
 726 127 l 1,139,-1
 678 127 l 1,140,-1
 689 103 l 2,141,142
 690 100 690 100 691.5 97.5 c 128,-1,143
 693 95 693 95 694 92.5 c 128,-1,144
 695 90 695 90 696 87.5 c 128,-1,145
 697 85 697 85 698 83.5 c 128,-1,146
 699 82 699 82 699.5 80.5 c 128,-1,147
 700 79 700 79 700 78 c 2,148,-1
 701 77 l 2,149,150
 702 76 702 76 738 101 c 2,137,-1
383 -67 m 0,151,152
 328 -23 328 -23 326 -22 c 0,153,154
 323 -20 323 -20 306 -59 c 0,155,156
 294 -87 294 -87 272 -139 c 0,157,158
 223 -260 223 -260 224 -261 c 0,159,160
 224 -262 224 -262 277 -225 c 128,-1,161
 330 -188 330 -188 382.5 -150 c 128,-1,162
 435 -112 435 -112 435 -111 c 0,163,164
 435 -108 435 -108 383 -67 c 0,151,152
671 -148 m 0,165,166
 627 -58 627 -58 624 -58 c 0,167,168
 620 -57 620 -57 582.5 -84.5 c 128,-1,169
 545 -112 545 -112 546 -115 c 0,170,171
 546 -118 546 -118 705 -245 c 0,172,173
 718 -256 718 -256 718 -252 c 0,174,175
 718 -245 718 -245 671 -148 c 0,165,166
EndSplineSet
Validated: 33
EndChar

StartChar: t
Encoding: 116 116 87
Width: 1024
Flags: W
LayerCount: 2
Fore
SplineSet
482 155 m 1,0,-1
 830 502 l 1,1,-1
 831 187 l 1,2,-1
 832 -129 l 1,3,-1
 864 -129 l 1,4,-1
 896 -129 l 1,5,-1
 896 -161 l 1,6,-1
 896 -193 l 1,7,-1
 864 -193 l 1,8,-1
 832 -193 l 1,9,-1
 832 -257 l 1,10,-1
 832 -321 l 1,11,-1
 864 -321 l 1,12,-1
 896 -321 l 1,13,-1
 896 -353 l 1,14,-1
 896 -385 l 1,15,-1
 768 -385 l 1,16,-1
 640 -385 l 1,17,-1
 640 -353 l 1,18,-1
 640 -321 l 1,19,-1
 672 -321 l 1,20,-1
 704 -321 l 1,21,-1
 704 -257 l 1,22,-1
 704 -193 l 1,23,-1
 419 -193 l 1,24,-1
 134 -193 l 1,25,-1
 482 155 l 1,0,-1
704 84 m 2,26,27
 704 298 704 298 703 298 c 128,-1,28
 702 298 702 298 489 84 c 1,29,-1
 275 -129 l 1,30,-1
 490 -129 l 1,31,-1
 704 -129 l 1,32,-1
 704 84 l 2,26,27
EndSplineSet
Validated: 1
EndChar

StartChar: u
Encoding: 117 117 88
Width: 1024
Flags: W
LayerCount: 2
Fore
SplineSet
448 415 m 1,0,-1
 448 447 l 1,1,-1
 672 447 l 1,2,-1
 896 447 l 1,3,-1
 896 415 l 1,4,-1
 896 383 l 1,5,-1
 864 383 l 1,6,-1
 832 383 l 1,7,-1
 832 191 l 1,8,-1
 832 -1 l 1,9,-1
 864 -1 l 1,10,-1
 896 -1 l 1,11,-1
 896 -33 l 1,12,-1
 896 -65 l 1,13,-1
 864 -65 l 1,14,-1
 832 -65 l 1,15,-1
 832 -168 l 2,16,17
 832 -260 832 -260 836 -280.5 c 128,-1,18
 840 -301 840 -301 861 -311 c 0,19,20
 881 -321 881 -321 920 -321 c 2,21,-1
 960 -321 l 1,22,-1
 960 -354 l 1,23,-1
 960 -386 l 1,24,-1
 880 -384 l 2,25,26
 813 -383 813 -383 787 -377.5 c 128,-1,27
 761 -372 761 -372 741 -355 c 1,28,29
 725 -343 725 -343 716 -324 c 0,30,31
 709 -311 709 -311 707.5 -291 c 128,-1,32
 706 -271 706 -271 705 -186 c 2,33,-1
 704 -65 l 1,34,-1
 416 -65 l 1,35,-1
 128 -65 l 1,36,-1
 128 -33 l 1,37,-1
 128 -1 l 1,38,-1
 192 -1 l 1,39,-1
 256 -1 l 1,40,-1
 256 95 l 1,41,-1
 256 191 l 1,42,-1
 192 191 l 1,43,-1
 128 191 l 1,44,-1
 128 223 l 1,45,-1
 128 255 l 1,46,-1
 256 255 l 1,47,-1
 384 255 l 1,48,-1
 384 127 l 1,49,-1
 384 -1 l 1,50,-1
 448 -1 l 1,51,-1
 512 -1 l 1,52,-1
 512 191 l 1,53,-1
 512 383 l 1,54,-1
 480 383 l 1,55,-1
 448 383 l 1,56,-1
 448 415 l 1,0,-1
704 191 m 1,57,-1
 704 383 l 1,58,-1
 640 383 l 1,59,-1
 576 383 l 1,60,-1
 576 191 l 1,61,-1
 576 -1 l 1,62,-1
 640 -1 l 1,63,-1
 704 -1 l 1,64,-1
 704 191 l 1,57,-1
EndSplineSet
Validated: 1
EndChar

StartChar: v
Encoding: 118 118 89
Width: 1024
Flags: W
LayerCount: 2
Fore
SplineSet
211 374 m 0,0,1
 257 392 257 392 304.5 374 c 128,-1,2
 352 356 352 356 373 313 c 0,3,4
 396 266 396 266 381 217 c 128,-1,5
 366 168 366 168 320 142 c 0,6,7
 295 129 295 129 258 129 c 0,8,9
 225 129 225 129 206.5 136.5 c 128,-1,10
 188 144 188 144 166 166 c 0,11,12
 130 202 130 202 130 255 c 0,13,14
 130 287 130 287 142 311 c 0,15,16
 163 355 163 355 211 374 c 0,0,1
448 415 m 1,17,-1
 448 447 l 1,18,-1
 704 447 l 1,19,-1
 960 447 l 1,20,-1
 960 415 l 1,21,-1
 960 383 l 1,22,-1
 928 383 l 1,23,-1
 896 383 l 1,24,-1
 896 223 l 1,25,-1
 896 63 l 1,26,-1
 928 63 l 1,27,-1
 960 63 l 1,28,-1
 960 31 l 1,29,-1
 960 -1 l 1,30,-1
 928 -1 l 1,31,-1
 896 -1 l 1,32,-1
 896 -161 l 1,33,-1
 896 -321 l 1,34,-1
 928 -321 l 1,35,-1
 960 -321 l 1,36,-1
 960 -353 l 1,37,-1
 960 -385 l 1,38,-1
 832 -385 l 1,39,-1
 704 -385 l 1,40,-1
 704 -353 l 1,41,-1
 704 -321 l 1,42,-1
 736 -321 l 1,43,-1
 768 -321 l 1,44,-1
 768 -161 l 1,45,-1
 768 -1 l 1,46,-1
 672 -1 l 1,47,-1
 576 -1 l 1,48,-1
 576 -161 l 1,49,-1
 576 -321 l 1,50,-1
 608 -321 l 1,51,-1
 640 -321 l 1,52,-1
 640 -353 l 1,53,-1
 640 -385 l 1,54,-1
 544 -385 l 1,55,-1
 448 -385 l 1,56,-1
 448 -353 l 1,57,-1
 448 -321 l 1,58,-1
 480 -321 l 1,59,-1
 512 -321 l 1,60,-1
 512 -161 l 1,61,-1
 512 -1 l 1,62,-1
 481 -1 l 1,63,-1
 449 -1 l 1,64,-1
 290 -223 l 1,65,-1
 130 -445 l 1,66,-1
 129 -223 l 1,67,-1
 128 -1 l 1,68,-1
 96 -1 l 1,69,-1
 64 -1 l 1,70,-1
 64 31 l 1,71,-1
 64 63 l 1,72,-1
 288 63 l 1,73,-1
 512 63 l 1,74,-1
 512 223 l 1,75,-1
 512 383 l 1,76,-1
 480 383 l 1,77,-1
 448 383 l 1,78,-1
 448 415 l 1,17,-1
768 223 m 1,79,-1
 768 383 l 1,80,-1
 672 383 l 1,81,-1
 576 383 l 1,82,-1
 576 223 l 1,83,-1
 576 63 l 1,84,-1
 672 63 l 1,85,-1
 768 63 l 1,86,-1
 768 223 l 1,79,-1
360 -7 m 0,87,88
 362 -4 362 -4 353 -3 c 0,89,90
 342 -1 342 -1 310 -1 c 2,91,-1
 256 -1 l 1,92,-1
 256 -76 l 2,93,94
 256 -85 256 -85 256 -93 c 128,-1,95
 256 -101 256 -101 256 -108.5 c 128,-1,96
 256 -116 256 -116 256.5 -122.5 c 128,-1,97
 257 -129 257 -129 257 -134 c 128,-1,98
 257 -139 257 -139 257 -143 c 128,-1,99
 257 -147 257 -147 258 -148 c 1,100,-1
 258 -150 l 1,101,102
 260 -148 260 -148 309 -79.5 c 128,-1,103
 358 -11 358 -11 360 -7 c 0,87,88
EndSplineSet
Validated: 33
EndChar

StartChar: w
Encoding: 119 119 90
Width: 1024
Flags: W
LayerCount: 2
Fore
SplineSet
128 415 m 1,0,-1
 128 447 l 1,1,-1
 224 447 l 1,2,-1
 320 447 l 1,3,-1
 320 415 l 1,4,-1
 320 383 l 1,5,-1
 288 383 l 1,6,-1
 256 383 l 1,7,-1
 256 127 l 1,8,-1
 256 -129 l 1,9,-1
 352 -129 l 1,10,-1
 448 -129 l 1,11,-1
 448 127 l 1,12,-1
 448 383 l 1,13,-1
 416 383 l 1,14,-1
 384 383 l 1,15,-1
 384 415 l 1,16,-1
 384 447 l 1,17,-1
 480 447 l 1,18,-1
 576 447 l 1,19,-1
 576 415 l 1,20,-1
 576 383 l 1,21,-1
 544 383 l 1,22,-1
 512 383 l 1,23,-1
 512 127 l 1,24,-1
 512 -129 l 1,25,-1
 608 -129 l 1,26,-1
 704 -129 l 1,27,-1
 704 127 l 1,28,-1
 704 383 l 1,29,-1
 672 383 l 1,30,-1
 640 383 l 1,31,-1
 640 415 l 1,32,-1
 640 447 l 1,33,-1
 768 447 l 1,34,-1
 896 447 l 1,35,-1
 896 415 l 1,36,-1
 896 383 l 1,37,-1
 864 383 l 1,38,-1
 832 383 l 1,39,-1
 832 127 l 1,40,-1
 832 -129 l 1,41,-1
 864 -129 l 1,42,-1
 896 -129 l 1,43,-1
 896 -161 l 1,44,-1
 896 -193 l 1,45,-1
 577 -193 l 1,46,-1
 257 -193 l 1,47,-1
 255 -241 l 2,48,49
 251 -318 251 -318 226 -348 c 0,50,51
 209 -369 209 -369 189.5 -375.5 c 128,-1,52
 170 -382 170 -382 125 -384 c 2,53,-1
 73 -386 l 1,54,-1
 73 -322 l 1,55,-1
 73 -257 l 1,56,-1
 108 -257 l 2,57,58
 144 -257 144 -257 158.5 -251 c 128,-1,59
 173 -245 173 -245 182 -227 c 2,60,-1
 192 -208 l 1,61,-1
 192 87 l 1,62,-1
 192 383 l 1,63,-1
 160 383 l 1,64,-1
 128 383 l 1,65,-1
 128 415 l 1,0,-1
EndSplineSet
Validated: 1
EndChar

StartChar: x
Encoding: 120 120 91
Width: 1024
Flags: W
LayerCount: 2
Fore
SplineSet
640 415 m 1,0,-1
 640 447 l 1,1,-1
 768 447 l 1,2,-1
 896 447 l 1,3,-1
 896 415 l 1,4,-1
 896 383 l 1,5,-1
 864 383 l 1,6,-1
 832 383 l 1,7,-1
 832 255 l 1,8,-1
 832 127 l 1,9,-1
 864 127 l 1,10,-1
 896 127 l 1,11,-1
 896 95 l 1,12,-1
 896 63 l 1,13,-1
 864 63 l 1,14,-1
 832 63 l 1,15,-1
 832 -160 l 1,16,-1
 832 -383 l 1,17,-1
 609 -160 l 1,18,-1
 386 63 l 1,19,-1
 257 63 l 1,20,-1
 128 63 l 1,21,-1
 128 95 l 1,22,-1
 128 127 l 1,23,-1
 416 127 l 1,24,-1
 704 127 l 1,25,-1
 704 255 l 1,26,-1
 704 383 l 1,27,-1
 672 383 l 1,28,-1
 640 383 l 1,29,-1
 640 415 l 1,0,-1
704 -50 m 2,30,-1
 704 63 l 1,31,-1
 590 63 l 1,32,-1
 476 63 l 1,33,-1
 589 -50 l 2,34,35
 702 -163 702 -163 703 -163 c 128,-1,36
 704 -163 704 -163 704 -50 c 2,30,-1
339 502 m 0,37,38
 385 520 385 520 432.5 502 c 128,-1,39
 480 484 480 484 501 441 c 0,40,41
 525 394 525 394 509.5 344.5 c 128,-1,42
 494 295 494 295 448 270 c 0,43,44
 432 261 432 261 422 259 c 128,-1,45
 412 257 412 257 386 257 c 0,46,47
 353 257 353 257 334.5 264.5 c 128,-1,48
 316 272 316 272 294 294 c 0,49,50
 259 329 259 329 258 383 c 0,51,52
 258 415 258 415 270 439 c 0,53,54
 292 484 292 484 339 502 c 0,37,38
EndSplineSet
Validated: 33
EndChar

StartChar: y
Encoding: 121 121 92
Width: 1024
Flags: W
LayerCount: 2
Fore
SplineSet
524 482 m 0,0,1
 535 507 535 507 538 507 c 0,2,3
 540 507 540 507 625 336 c 0,4,5
 711 164 711 164 713 163 c 0,6,7
 714 162 714 162 726.5 174.5 c 128,-1,8
 739 187 739 187 757 208 c 2,9,-1
 798 255 l 1,10,-1
 783 255 l 1,11,-1
 768 255 l 1,12,-1
 768 287 l 1,13,-1
 768 319 l 1,14,-1
 864 319 l 1,15,-1
 960 319 l 1,16,-1
 960 287 l 1,17,-1
 960 255 l 1,18,-1
 920 255 l 1,19,-1
 880 255 l 1,20,-1
 815 180 l 2,21,22
 751 107 751 107 748 99 c 0,23,24
 746 92 746 92 816 -50 c 2,25,-1
 887 -193 l 1,26,-1
 923 -193 l 1,27,-1
 960 -193 l 1,28,-1
 960 -225 l 1,29,-1
 960 -257 l 1,30,-1
 768 -257 l 1,31,-1
 576 -257 l 1,32,-1
 576 -289 l 1,33,-1
 576 -321 l 1,34,-1
 608 -321 l 1,35,-1
 640 -321 l 1,36,-1
 640 -353 l 1,37,-1
 640 -385 l 1,38,-1
 512 -385 l 1,39,-1
 384 -385 l 1,40,-1
 384 -353 l 1,41,-1
 384 -321 l 1,42,-1
 416 -321 l 1,43,-1
 448 -321 l 1,44,-1
 448 -289 l 1,45,-1
 448 -257 l 1,46,-1
 288 -257 l 1,47,-1
 128 -257 l 1,48,-1
 128 -225 l 1,49,-1
 128 -193 l 1,50,-1
 166 -193 l 1,51,-1
 203 -193 l 1,52,-1
 258 -78 l 2,53,54
 313 37 313 37 309 42 c 0,55,56
 305 48 305 48 234 135 c 0,57,58
 154 233 154 233 150 239 c 2,59,-1
 139 255 l 1,60,-1
 101 255 l 1,61,-1
 64 255 l 1,62,-1
 64 287 l 1,63,-1
 64 319 l 1,64,-1
 192 319 l 1,65,-1
 320 319 l 1,66,-1
 320 287 l 2,67,68
 320 264 320 264 318.5 259.5 c 128,-1,69
 317 255 317 255 309 254 c 256,70,71
 301 253 301 253 304 246 c 1,72,73
 308 240 308 240 333 209 c 0,74,75
 349 190 349 190 360 179 c 128,-1,76
 371 168 371 168 372 169 c 0,77,78
 374 171 374 171 441 309 c 128,-1,79
 508 447 508 447 524 482 c 0,0,1
565 176 m 0,80,81
 507 289 507 289 504 289 c 0,82,83
 500 289 500 289 459.5 199.5 c 128,-1,84
 419 110 419 110 421 105 c 0,85,86
 423 101 423 101 463.5 52 c 128,-1,87
 504 3 504 3 508 -1 c 1,88,-1
 510 -4 l 2,89,90
 513 -7 513 -7 517 -12.5 c 128,-1,91
 521 -18 521 -18 524 -22 c 0,92,93
 531 -31 531 -31 535.5 -35.5 c 128,-1,94
 540 -40 540 -40 541 -39 c 0,95,96
 545 -38 545 -38 584 8 c 128,-1,97
 623 54 623 54 623 58 c 0,98,99
 623 64 623 64 565 176 c 0,80,81
746 -190 m 0,100,101
 746 -186 746 -186 701 -96 c 2,102,-1
 655 -5 l 1,103,-1
 615 -51 l 1,104,-1
 576 -97 l 1,105,-1
 576 -145 l 1,106,-1
 576 -193 l 1,107,-1
 661 -193 l 2,108,109
 746 -193 746 -193 746 -190 c 0,100,101
404 -73 m 2,110,111
 360 -18 360 -18 358 -18 c 0,112,113
 357 -18 357 -18 343.5 -44 c 128,-1,114
 330 -70 330 -70 312.5 -107 c 128,-1,115
 295 -144 295 -144 283 -171 c 2,116,-1
 273 -193 l 1,117,-1
 361 -193 l 1,118,-1
 448 -193 l 1,119,-1
 448 -160 l 1,120,-1
 448 -127 l 1,121,-1
 404 -73 l 2,110,111
EndSplineSet
Validated: 33
EndChar

StartChar: z
Encoding: 122 122 93
Width: 1024
Flags: W
LayerCount: 2
Fore
SplineSet
255 414 m 1,0,-1
 256 511 l 1,1,-1
 324 511 l 1,2,-1
 391 511 l 1,3,-1
 468 396 l 1,4,5
 544 280 544 280 546 280 c 0,6,7
 547 280 547 280 587 365 c 2,8,-1
 626 449 l 1,9,-1
 601 450 l 1,10,-1
 576 452 l 1,11,-1
 576 481 l 1,12,-1
 576 511 l 1,13,-1
 768 511 l 1,14,-1
 960 511 l 1,15,-1
 960 479 l 1,16,-1
 960 447 l 1,17,-1
 928 447 l 1,18,-1
 896 447 l 1,19,-1
 896 31 l 1,20,-1
 896 -385 l 1,21,-1
 865 -385 l 1,22,-1
 834 -385 l 1,23,-1
 770 -288 l 1,24,-1
 706 -191 l 1,25,-1
 705 -288 l 1,26,-1
 704 -385 l 1,27,-1
 636 -385 l 1,28,-1
 569 -385 l 1,29,-1
 492 -269 l 1,30,-1
 414 -153 l 1,31,-1
 404 -176 l 2,32,33
 403 -178 403 -178 388.5 -208.5 c 128,-1,34
 374 -239 374 -239 365 -259 c 2,35,-1
 337 -319 l 1,36,-1
 361 -320 l 1,37,-1
 384 -322 l 1,38,-1
 384 -353 l 1,39,-1
 384 -385 l 1,40,-1
 224 -385 l 1,41,-1
 64 -385 l 1,42,-1
 64 -353 l 1,43,-1
 64 -321 l 1,44,-1
 96 -321 l 1,45,-1
 128 -321 l 1,46,-1
 128 93 l 1,47,-1
 128 507 l 1,48,-1
 191 412 l 1,49,-1
 254 318 l 1,50,-1
 255 414 l 1,0,-1
768 198 m 1,51,-1
 768 451 l 1,52,-1
 736 451 l 1,53,-1
 704 451 l 1,54,-1
 704 246 l 1,55,-1
 704 42 l 1,56,-1
 736 -6 l 1,57,-1
 768 -54 l 1,58,-1
 768 198 l 1,51,-1
401 270 m 0,59,60
 324 387 324 387 322 387 c 128,-1,61
 320 387 320 387 320 302 c 2,62,-1
 320 216 l 1,63,-1
 377 131 l 2,64,65
 433 46 433 46 436 46 c 0,66,67
 440 46 440 46 461 94 c 128,-1,68
 482 142 482 142 480 147 c 128,-1,69
 478 152 478 152 401 270 c 0,59,60
640 230 m 2,70,71
 640 323 640 323 639 323 c 128,-1,72
 638 323 638 323 612 270 c 1,73,-1
 588 216 l 1,74,-1
 614 177 l 1,75,-1
 640 138 l 1,76,-1
 640 230 l 2,70,71
256 -118 m 1,77,-1
 256 84 l 1,78,-1
 224 132 l 1,79,-1
 192 180 l 1,80,-1
 192 -70 l 1,81,-1
 192 -321 l 1,82,-1
 224 -321 l 1,83,-1
 256 -321 l 1,84,-1
 256 -118 l 1,77,-1
583 -6 m 2,85,86
 526 80 526 80 525 80 c 0,87,88
 523 80 523 80 501 32 c 128,-1,89
 479 -16 479 -16 480 -20 c 1,90,91
 480 -25 480 -25 559 -144 c 2,92,-1
 638 -263 l 1,93,-1
 639 -177 l 1,94,-1
 640 -91 l 1,95,-1
 583 -6 l 2,85,86
371 -95 m 0,96,97
 371 -88 371 -88 346 -50 c 2,98,-1
 320 -12 l 1,99,-1
 320 -108 l 1,100,-1
 321 -204 l 1,101,-1
 346 -153 l 2,102,103
 371 -103 371 -103 371 -95 c 0,96,97
EndSplineSet
Validated: 33
EndChar

StartChar: bar
Encoding: 124 124 95
Width: 512
Flags: W
LayerCount: 2
Fore
SplineSet
256 63 m 1,0,-1
 256 511 l 1,1,-1
 288 511 l 1,2,-1
 320 511 l 1,3,-1
 320 63 l 1,4,-1
 320 -385 l 1,5,-1
 288 -385 l 1,6,-1
 256 -385 l 1,7,-1
 256 63 l 1,0,-1
EndSplineSet
Validated: 1
EndChar

StartChar: uni007F
Encoding: 127 127 98
Width: 1024
Flags: W
LayerCount: 2
Fore
SplineSet
475 -321 m 128,-1,1
 493 -309 493 -309 500 -308 c 0,2,3
 506 -308 506 -308 526 -324 c 128,-1,4
 546 -340 546 -340 546 -346 c 0,5,6
 546 -355 546 -355 528 -341 c 0,7,8
 525 -339 525 -339 521 -336 c 0,9,10
 502 -321 502 -321 500 -321 c 0,11,12
 496 -321 496 -321 486.5 -327.5 c 128,-1,13
 477 -334 477 -334 471 -341 c 0,14,15
 460 -355 460 -355 455 -347 c 0,16,17
 453 -345 453 -345 455 -340 c 0,18,0
 457 -333 457 -333 475 -321 c 128,-1,1
205 -278 m 0,19,20
 222 -274 222 -274 246.5 -276 c 128,-1,21
 271 -278 271 -278 277 -284 c 0,22,23
 281 -289 281 -289 281 -291.5 c 128,-1,24
 281 -294 281 -294 274 -300 c 0,25,26
 256 -314 256 -314 212 -312 c 0,27,28
 182 -310 182 -310 179.5 -297.5 c 128,-1,29
 177 -285 177 -285 205 -278 c 0,19,20
734 -270 m 0,30,31
 749 -266 749 -266 774 -268 c 0,32,33
 811 -270 811 -270 814 -287 c 0,34,35
 816 -301 816 -301 793 -308 c 0,36,37
 782 -312 782 -312 766 -312 c 0,38,39
 716 -312 716 -312 713 -292 c 0,40,41
 712 -282 712 -282 716.5 -277.5 c 128,-1,42
 721 -273 721 -273 734 -270 c 0,30,31
480 -252 m 0,43,44
 483 -248 483 -248 496 -249 c 0,45,46
 508 -250 508 -250 511 -258.5 c 128,-1,47
 514 -267 514 -267 506 -273.5 c 128,-1,48
 498 -280 498 -280 486.5 -270.5 c 128,-1,49
 475 -261 475 -261 480 -252 c 0,43,44
631 -130 m 0,50,51
 635 -122 635 -122 646.5 -120.5 c 128,-1,52
 658 -119 658 -119 668 -126 c 0,53,54
 673 -130 673 -130 674.5 -141 c 128,-1,55
 676 -152 676 -152 678 -190 c 1,56,57
 679 -237 679 -237 675 -247.5 c 128,-1,58
 671 -258 671 -258 652 -256 c 0,59,60
 639 -255 639 -255 635 -243 c 128,-1,61
 631 -231 631 -231 629 -184 c 1,62,63
 626 -139 626 -139 631 -130 c 0,50,51
317.5 -116.5 m 128,-1,65
 320 -112 320 -112 335 -112 c 2,66,67
 335 -112 335 -112 336 -112 c 0,68,69
 356 -112 356 -112 359.5 -120 c 128,-1,70
 363 -128 363 -128 363 -178 c 0,71,72
 363 -179 363 -179 363 -180 c 0,73,74
 363 -243 363 -243 360.5 -250 c 128,-1,75
 358 -257 358 -257 343 -259.5 c 128,-1,76
 328 -262 328 -262 322 -257 c 0,77,78
 315 -251 315 -251 316 -241.5 c 128,-1,79
 317 -232 317 -232 324 -225 c 0,80,81
 332 -218 332 -218 332 -213 c 128,-1,82
 332 -208 332 -208 322 -196 c 0,83,84
 314 -186 314 -186 312.5 -179.5 c 128,-1,85
 311 -173 311 -173 313 -152 c 0,86,64
 315 -121 315 -121 317.5 -116.5 c 128,-1,65
670 -64 m 0,87,88
 688 -57 688 -57 707 -67 c 128,-1,89
 726 -77 726 -77 738 -101 c 0,90,91
 748 -121 748 -121 750.5 -159 c 128,-1,92
 753 -197 753 -197 745 -224 c 0,93,94
 735 -258 735 -258 724 -256 c 0,95,96
 722 -255 722 -255 720 -253 c 0,97,98
 715 -248 715 -248 722 -221 c 0,99,100
 732 -187 732 -187 728.5 -150.5 c 128,-1,101
 725 -114 725 -114 712 -97 c 0,102,103
 705 -88 705 -88 696.5 -87.5 c 128,-1,104
 688 -87 688 -87 658 -93 c 0,105,106
 644 -96 644 -96 644 -90 c 0,107,108
 644 -85 644 -85 653 -76 c 128,-1,109
 662 -67 662 -67 670 -64 c 0,87,88
273 -72 m 0,110,111
 290 -56 290 -56 305 -56 c 0,112,113
 321 -56 321 -56 331 -61 c 128,-1,114
 341 -66 341 -66 341 -73 c 0,115,116
 341 -79 341 -79 337.5 -80 c 128,-1,117
 334 -81 334 -81 319 -81 c 0,118,119
 296 -80 296 -80 284 -88 c 128,-1,120
 272 -96 272 -96 262 -119 c 0,121,122
 251 -144 251 -144 251 -173.5 c 128,-1,123
 251 -203 251 -203 263 -227 c 1,124,125
 273 -250 273 -250 269 -254 c 0,126,127
 261 -262 261 -262 246 -234 c 0,128,129
 237 -216 237 -216 237 -174 c 0,130,131
 237 -136 237 -136 245 -113 c 128,-1,132
 253 -90 253 -90 273 -72 c 0,110,111
485 306 m 0,133,134
 501 319 501 319 519.5 313 c 128,-1,135
 538 307 538 307 543 291 c 128,-1,136
 548 275 548 275 537 258 c 0,137,138
 529 246 529 246 512 246 c 256,139,140
 495 246 495 246 484.5 255.5 c 128,-1,141
 474 265 474 265 474 281 c 256,142,143
 474 297 474 297 485 306 c 0,133,134
53 497 m 0,144,145
 55 502 55 502 61 502 c 0,146,147
 66 502 66 502 104.5 476 c 128,-1,148
 143 450 143 450 173 426 c 0,149,150
 208 398 208 398 277.5 334 c 128,-1,151
 347 270 347 270 383 232 c 2,152,-1
 428 186 l 1,153,-1
 502 188 l 1,154,-1
 577 190 l 1,155,-1
 614 232 l 1,156,157
 710 339 710 339 800 401 c 0,158,159
 843 430 843 430 884.5 453.5 c 128,-1,160
 926 477 926 477 936 477 c 0,161,162
 942 477 942 477 949 468 c 128,-1,163
 956 459 956 459 960 445 c 0,164,165
 972 398 972 398 978 300.5 c 128,-1,166
 984 203 984 203 977 157 c 0,167,168
 960 38 960 38 912 -53 c 0,169,170
 899 -78 899 -78 904 -83 c 0,171,172
 916 -95 916 -95 894 -144 c 0,173,174
 882 -170 882 -170 884.5 -176 c 128,-1,175
 887 -182 887 -182 918 -199 c 0,176,177
 946 -215 946 -215 949 -221 c 0,178,179
 955 -238 955 -238 917 -257 c 0,180,181
 899 -266 899 -266 896 -269.5 c 128,-1,182
 893 -273 893 -273 897 -278 c 0,183,184
 902 -285 902 -285 916 -304 c 0,185,186
 955 -355 955 -355 883 -355 c 2,187,-1
 854 -355 l 1,188,-1
 856 -372 l 2,189,190
 859 -390 859 -390 848 -394 c 128,-1,191
 837 -398 837 -398 792 -396 c 0,192,193
 745 -394 745 -394 738.5 -393 c 128,-1,194
 732 -392 732 -392 621 -399 c 0,195,196
 425 -412 425 -412 322 -392 c 0,197,198
 287 -385 287 -385 279 -386 c 0,199,200
 262 -387 262 -387 220.5 -385 c 128,-1,201
 179 -383 179 -383 175 -381 c 0,202,203
 169 -377 169 -377 170 -363 c 1,204,-1
 170 -350 l 1,205,-1
 119 -352 l 2,206,207
 84 -354 84 -354 75.5 -353 c 128,-1,208
 67 -352 67 -352 64 -346 c 0,209,210
 57 -333 57 -333 84 -293 c 2,211,-1
 100 -269 l 1,212,-1
 71 -242 l 2,213,214
 43 -216 43 -216 43 -211 c 0,215,216
 43 -202 43 -202 50.5 -194.5 c 128,-1,217
 58 -187 58 -187 81 -176 c 2,218,-1
 115 -159 l 1,219,-1
 96 -123 l 2,220,221
 80 -94 80 -94 78 -84 c 128,-1,222
 76 -74 76 -74 85 -68 c 0,223,224
 91 -64 91 -64 91 -60.5 c 128,-1,225
 91 -57 91 -57 83 -42 c 0,226,227
 73 -21 73 -21 54 39 c 0,228,229
 41 78 41 78 37 99.5 c 128,-1,230
 33 121 33 121 30 159 c 0,231,232
 26 219 26 219 26 255 c 0,233,234
 26 303 26 303 35.5 386 c 128,-1,235
 45 469 45 469 53 497 c 0,144,145
143 411 m 256,236,237
 110 436 110 436 104.5 438.5 c 128,-1,238
 99 441 99 441 94 434 c 0,239,240
 87 422 87 422 77.5 376.5 c 128,-1,241
 68 331 68 331 64 290 c 0,242,243
 53 173 53 173 76 84 c 0,244,245
 87 41 87 41 101 11 c 128,-1,246
 115 -19 115 -19 141 -53 c 0,247,248
 166 -87 166 -87 177 -106 c 0,249,250
 185 -119 185 -119 186 -123.5 c 128,-1,251
 187 -128 187 -128 183 -132 c 0,252,253
 177 -138 177 -138 163 -133 c 128,-1,254
 149 -128 149 -128 147 -130 c 128,-1,255
 145 -132 145 -132 152 -155 c 0,256,257
 158 -175 158 -175 154 -180.5 c 128,-1,258
 150 -186 150 -186 118 -202 c 0,259,260
 94 -214 94 -214 94 -218 c 128,-1,261
 94 -222 94 -222 119 -240 c 0,262,263
 140 -255 140 -255 145.5 -264 c 128,-1,264
 151 -273 151 -273 144 -282 c 0,265,266
 139 -287 139 -287 131.5 -301.5 c 128,-1,267
 124 -316 124 -316 124 -319 c 0,268,269
 124 -321 124 -321 159 -321 c 0,270,271
 190 -321 190 -321 198 -325 c 128,-1,272
 206 -329 206 -329 205 -344 c 2,273,-1
 204 -359 l 1,274,-1
 239 -359 l 2,275,276
 273 -359 273 -359 285 -363.5 c 128,-1,277
 297 -368 297 -368 331 -375.5 c 128,-1,278
 365 -383 365 -383 514 -382.5 c 128,-1,279
 663 -382 663 -382 699.5 -377 c 128,-1,280
 736 -372 736 -372 776 -367 c 0,281,282
 811 -362 811 -362 811 -359 c 0,283,284
 811 -358 811 -358 809 -356 c 0,285,286
 794 -343 794 -343 810 -328 c 0,287,288
 818 -321 818 -321 851 -321 c 2,289,-1
 884 -321 l 1,290,-1
 871 -305 l 2,291,292
 858 -288 858 -288 854 -276 c 0,293,294
 851 -269 851 -269 852 -265 c 128,-1,295
 853 -261 853 -261 862 -253 c 0,296,297
 875 -240 875 -240 883 -238 c 0,298,299
 897 -233 897 -233 883 -223 c 0,300,301
 878 -220 878 -220 870 -215 c 0,302,303
 849 -202 849 -202 843 -189 c 1,304,305
 838 -181 838 -181 838.5 -176 c 128,-1,306
 839 -171 839 -171 845 -158 c 0,307,308
 855 -136 855 -136 853 -130 c 128,-1,309
 851 -124 851 -124 834 -127 c 0,310,311
 802 -132 802 -132 802 -112 c 0,312,313
 802 -104 802 -104 812 -99 c 0,314,315
 851 -78 851 -78 878.5 -31.5 c 128,-1,316
 906 15 906 15 927 94 c 0,317,318
 937 131 937 131 939 149 c 128,-1,319
 941 167 941 167 940 221 c 1,320,321
 940 296 940 296 926.5 363.5 c 128,-1,322
 913 431 913 431 911 433 c 0,323,324
 907 437 907 437 817 375 c 0,325,326
 721 309 721 309 623 197 c 1,327,-1
 599 170 l 1,328,-1
 501 169 l 1,329,-1
 403 169 l 1,330,-1
 350 223 l 2,331,332
 300 274 300 274 238 330 c 128,-1,333
 176 386 176 386 143 411 c 256,236,237
465 524 m 1,334,335
 489 532 489 532 508 532 c 0,336,337
 524 532 524 532 546 523 c 128,-1,338
 568 514 568 514 579 502 c 0,339,340
 589 491 589 491 595 474.5 c 128,-1,341
 601 458 601 458 599 449 c 0,342,343
 595 432 595 432 554 404 c 0,344,345
 543 396 543 396 540 378 c 0,346,347
 536 352 536 352 523.5 343.5 c 128,-1,348
 511 335 511 335 495 348 c 256,349,350
 479 361 479 361 490 401 c 0,351,352
 495 417 495 417 502.5 425 c 128,-1,353
 510 433 510 433 529 444 c 0,354,355
 542 451 542 451 542 459 c 0,356,357
 542 479 542 479 508 476 c 0,358,359
 494 475 494 475 487.5 471.5 c 128,-1,360
 481 468 481 468 470 456 c 0,361,362
 454 438 454 438 440 438 c 256,363,364
 426 438 426 438 420 448 c 128,-1,365
 414 458 414 458 419 475 c 0,366,367
 428 510 428 510 465 524 c 1,334,335
EndSplineSet
Validated: 33
EndChar
